<svg width="24" height="24" viewBox="0 0 24 24" fill="none" xmlns="http://www.w3.org/2000/svg">
<path d="M6.74386 1.30972C7.73964 0.758155 9.05555 0.323851 10.3342 0.124632C12.9983 -0.290252 15.7831 0.338346 18.1813 1.89586L18.9896 2.42085L17.6108 3.79698L16.2321 5.17312L15.5679 4.81714C15.2025 4.62136 14.526 4.34827 14.0644 4.21029C13.3381 3.99323 13.0619 3.95959 12.0127 3.96033C10.5593 3.96136 9.72941 4.15082 8.48912 4.76502L7.66988 5.1707L6.36758 3.81334C5.65129 3.06673 5.06584 2.43423 5.06649 2.40775C5.06808 2.34271 6.10871 1.66161 6.74386 1.30972Z" fill="white"/>
<path d="M0.546722 1.52734C0.717005 1.16979 1.08536 0.802013 1.47498 0.600471C1.90274 0.379324 2.79332 0.41231 3.2429 0.666073C4.5659 1.41268 4.52953 3.3099 3.17911 3.9963C2.77448 4.20202 2.01464 4.24783 1.6019 4.09135C1.23326 3.9516 0.671124 3.4241 0.528537 3.08411C0.35984 2.68177 0.368979 1.9006 0.546722 1.52734Z" fill="white"/>
<path d="M20.1298 1.27692C20.2857 1.0555 20.5795 0.780642 20.7826 0.666073C21.0528 0.513592 21.3051 0.457283 21.724 0.456168C22.2172 0.454867 22.3581 0.496402 22.7433 0.756669C23.7183 1.41537 23.8961 2.7142 23.1302 3.58327C22.2903 4.53643 20.854 4.46619 20.1259 3.43618C19.8766 3.08364 19.8461 2.96619 19.8461 2.3599C19.8461 1.75183 19.8764 1.63652 20.1298 1.27692Z" fill="white"/>
<path d="M4.34993 4.89826C3.98959 4.85682 3.83796 4.44463 4.08359 4.17423C4.38807 3.83898 4.87877 4.00429 4.87877 4.44212C4.87877 4.77226 4.6876 4.9371 4.34993 4.89826Z" fill="white"/>
<path d="M19.1654 4.8033C18.9976 4.63614 19.0292 4.19477 19.2167 4.08596C19.3065 4.03383 19.4533 3.98998 19.5431 3.9884C19.7386 3.98505 20.0793 4.30376 20.0793 4.49007C20.0793 4.83898 19.4259 5.06291 19.1654 4.8033Z" fill="white"/>
<path d="M18.8586 7.78665L20.1916 6.40662C20.9248 5.64756 21.5495 5.04154 21.5797 5.05994C21.747 5.16131 22.5764 6.52927 22.97 7.35291C24.3444 10.2288 24.3432 13.6789 22.9672 16.605C22.5819 17.4242 21.6684 18.8719 21.5628 18.8307C21.5283 18.8173 20.9018 18.2283 20.1706 17.522L18.8411 16.2377L19.2717 15.3384C19.905 14.0155 20.0298 13.4607 20.0283 11.9767C20.0267 10.4999 19.8994 9.93615 19.2768 8.65052L18.8586 7.78665Z" fill="white"/>
<path d="M0.000156772 11.9767C0.0100418 9.55899 0.573859 7.70061 1.89537 5.73044L2.31427 5.10584L3.6784 6.46135L5.04262 7.81685L4.63398 8.58214C4.03193 9.70989 3.82695 10.5665 3.82173 11.9767C3.81669 13.3616 4.02549 14.2451 4.64284 15.4505L5.03628 16.2189L3.70861 17.6055C2.97843 18.3681 2.36202 18.9711 2.3388 18.9456C2.13793 18.7247 1.47554 17.6425 1.17293 17.0408C0.297732 15.3005 -0.00795638 13.9803 0.000156772 11.9767Z" fill="white"/>
<path d="M5.3291 6.06189C5.11974 5.87317 5.11042 5.62647 5.30504 5.43245C5.3857 5.35217 5.55058 5.28648 5.67144 5.28648C6.11122 5.28648 6.33774 5.77077 6.03783 6.06969C5.84778 6.25906 5.54396 6.25572 5.3291 6.06189Z" fill="white"/>
<path d="M18.4938 6.1693C18.0395 6.31296 17.7051 5.89937 17.9326 5.47557C18.0604 5.23779 18.5575 5.24132 18.7081 5.48114C18.8406 5.69216 18.7137 6.09971 18.4938 6.1693Z" fill="white"/>
<path d="M6.65537 7.33544C6.41468 7.09561 6.41337 6.91665 6.65061 6.68026C6.86864 6.46302 7.01691 6.4476 7.25061 6.61782C7.42593 6.74559 7.48151 7.19476 7.33836 7.32726C7.13199 7.51821 6.84234 7.52174 6.65537 7.33544Z" fill="white"/>
<path d="M16.7687 7.38571C16.4999 7.21018 16.4671 6.90977 16.6899 6.66438C16.8815 6.45354 17.0759 6.44834 17.2976 6.64821C17.5408 6.8675 17.5122 7.2047 17.235 7.38571C17.019 7.52667 16.9847 7.52667 16.7687 7.38571Z" fill="white"/>
<path d="M7.90395 8.62692C7.73898 8.49052 7.72817 8.05965 7.88577 7.90262C7.94965 7.83897 8.1272 7.79929 8.28042 7.81434C8.60821 7.84659 8.81393 8.24763 8.64262 8.52034C8.52064 8.71445 8.08561 8.77717 7.90395 8.62692Z" fill="white"/>
<path d="M15.23 8.27606C15.23 8.19856 15.2995 8.05872 15.3844 7.96524C15.5596 7.77225 15.9767 7.74019 16.1439 7.9068C16.2055 7.96812 16.2558 8.12702 16.2558 8.25989C16.2558 8.56336 16.0983 8.72449 15.8016 8.72449C15.5373 8.72449 15.23 8.48345 15.23 8.27606Z" fill="white"/>
<path d="M9.09854 9.81368C8.92481 9.67979 8.95549 9.21371 9.14517 9.1036C9.39677 8.95762 9.61685 8.9854 9.82127 9.18908C10.0626 9.42956 10.0564 9.5208 9.77986 9.79631C9.55456 10.0208 9.37308 10.0254 9.09854 9.81368Z" fill="white"/>
<path d="M14.111 9.51569C14.111 9.31146 14.1692 9.16455 14.2742 9.1036C14.6907 8.86191 15.1433 9.19429 14.9897 9.62924C14.8063 10.1491 14.111 10.0593 14.111 9.51569Z" fill="white"/>
<path d="M10.72 11.2333C10.3722 11.2333 10.1493 10.6648 10.3994 10.4156C10.461 10.3543 10.6205 10.3041 10.7538 10.3041C11.0663 10.3041 11.2201 10.4624 11.2201 10.784C11.2201 11.0411 11.0063 11.2333 10.72 11.2333Z" fill="white"/>
<path d="M12.8827 11.0795C12.6892 10.905 12.6692 10.7436 12.8087 10.4838C12.9181 10.2801 13.3555 10.239 13.5328 10.4156C13.5943 10.4769 13.6447 10.6358 13.6447 10.7687C13.6447 11.2149 13.2234 11.3868 12.8827 11.0795Z" fill="white"/>
<path d="M11.6864 12.3483C11.4491 12.1119 11.4504 11.933 11.6911 11.6932C11.8883 11.4967 12.2175 11.5166 12.3611 11.7337C12.4967 11.9389 12.4345 12.3406 12.252 12.438C11.9958 12.5746 11.898 12.5592 11.6864 12.3483Z" fill="white"/>
<path d="M10.3994 13.5377C10.2425 13.3813 10.2601 13.0393 10.434 12.866C10.5147 12.7857 10.6586 12.72 10.7538 12.72C11.1314 12.72 11.3719 13.2749 11.1082 13.5377C11.0466 13.599 10.8872 13.6492 10.7538 13.6492C10.6205 13.6492 10.461 13.599 10.3994 13.5377Z" fill="white"/>
<path d="M12.8587 13.5032C12.6743 13.3194 12.674 13.1873 12.8574 12.9266C12.9372 12.8129 13.0912 12.72 13.1997 12.72C13.6192 12.72 13.9021 13.2627 13.6261 13.5377C13.4676 13.6956 13.0321 13.676 12.8587 13.5032Z" fill="white"/>
<path d="M8.98197 14.5008C8.98197 14.3595 9.03233 14.1937 9.09388 14.1324C9.26649 13.9604 9.68036 14.0002 9.86827 14.2071C10.0073 14.3602 10.0187 14.4341 9.93252 14.6226C9.71785 15.0921 8.98197 14.9976 8.98197 14.5008Z" fill="white"/>
<path d="M14.149 14.7178C14.0076 14.5026 14.0076 14.4684 14.149 14.2532C14.2984 14.026 14.6102 13.9507 14.8172 14.092C15.0105 14.2239 15.0491 14.5095 14.9036 14.7309C14.7103 15.0248 14.3468 15.0185 14.149 14.7178Z" fill="white"/>
<path d="M8.0028 16.1201C7.73395 15.9446 7.70112 15.6442 7.924 15.3988C8.11555 15.1879 8.30998 15.1827 8.53165 15.3826C8.77486 15.6019 8.74623 15.9391 8.46907 16.1201C8.2531 16.2611 8.21878 16.2611 8.0028 16.1201Z" fill="white"/>
<path d="M15.5564 16.1201C15.2876 15.9446 15.2547 15.6442 15.4776 15.3988C15.6692 15.1879 15.8636 15.1827 16.0853 15.3826C16.3285 15.6019 16.2999 15.9391 16.0227 16.1201C15.8067 16.2611 15.7724 16.2611 15.5564 16.1201Z" fill="white"/>
<path d="M6.66926 17.3474C6.52499 17.2036 6.52499 16.7849 6.66926 16.6412C6.85726 16.4539 7.19494 16.5131 7.3586 16.762C7.50007 16.9772 7.50007 17.0114 7.3586 17.2266C7.19494 17.4755 6.85726 17.5347 6.66926 17.3474Z" fill="white"/>
<path d="M16.5356 16.9943C16.5356 16.8614 16.586 16.7025 16.6475 16.6412C16.9112 16.3784 17.4681 16.6181 17.4681 16.9943C17.4681 17.3705 16.9112 17.6102 16.6475 17.3474C16.586 17.2861 16.5356 17.1272 16.5356 16.9943Z" fill="white"/>
<path d="M5.15854 18.2487C5.15854 18.172 5.24246 18.0257 5.34504 17.9235C5.44762 17.8213 5.58518 17.7376 5.65064 17.7376C5.88079 17.7376 6.18434 18.0283 6.18434 18.2487C6.18434 18.4691 5.88079 18.7598 5.65064 18.7598C5.48679 18.7598 5.15854 18.4189 5.15854 18.2487Z" fill="white"/>
<path d="M18.0743 18.6289C17.8054 18.4534 17.7726 18.153 17.9955 17.9076C18.187 17.6968 18.3815 17.6916 18.6031 17.8914C18.8464 18.1107 18.8177 18.4479 18.5406 18.6289C18.3246 18.7699 18.2903 18.7699 18.0743 18.6289Z" fill="white"/>
<path d="M5.10585 21.6305C5.06836 21.5701 5.59357 20.9758 6.36553 20.2053L7.68956 18.8837L8.59226 19.3341C9.85176 19.9626 10.4519 20.1016 11.9195 20.1046C13.4051 20.1076 14.1444 19.939 15.3694 19.3175L16.2365 18.8777L17.6042 20.2427L18.9719 21.6077L18.3142 22.0473C17.3515 22.691 15.8731 23.3623 14.8206 23.6338C12.7424 24.17 10.4729 24.1155 8.5157 23.4826C7.44616 23.1366 5.32565 21.9849 5.10585 21.6305Z" fill="white"/>
<path d="M4.11679 19.8139C3.92328 19.6394 3.90324 19.478 4.04274 19.2182C4.15213 19.0145 4.58959 18.9734 4.76687 19.15C4.82841 19.2113 4.87877 19.3702 4.87877 19.5031C4.87877 19.9493 4.45745 20.1212 4.11679 19.8139Z" fill="white"/>
<path d="M19.2051 19.8267C19.0267 19.6491 19.0068 19.3081 19.1654 19.15C19.34 18.9761 19.7527 19.0188 19.9452 19.2307C20.1045 19.4061 20.1075 19.4447 19.98 19.672C19.814 19.9681 19.4249 20.0458 19.2051 19.8267Z" fill="white"/>
<path d="M0.508674 22.2071C0.198696 21.2846 0.648929 20.2892 1.56823 19.8651C2.32108 19.5178 3.30799 19.7414 3.78471 20.3673C4.78748 21.6836 3.94893 23.4925 2.33385 23.4971C1.44392 23.4997 0.786946 23.0353 0.508674 22.2071Z" fill="white"/>
<path d="M19.9458 22.4835C19.4671 21.5397 19.9021 20.3007 20.8653 19.8648C22.1513 19.2829 23.6198 20.2559 23.6224 21.6917C23.6232 22.1444 23.1819 22.9218 22.7699 23.1935C22.3747 23.454 21.7104 23.5627 21.1514 23.4582C20.7844 23.3896 20.142 22.8703 19.9458 22.4835Z" fill="white"/>
</svg>
