<svg width="15" height="14" viewBox="0 0 15 14" fill="none" xmlns="http://www.w3.org/2000/svg">
<path d="M1 1H4.9C5.58956 1 6.25088 1.27393 6.73848 1.76152C7.22607 2.24912 7.5 2.91044 7.5 3.6V12.7C7.5 12.1828 7.29455 11.6868 6.92886 11.3211C6.56316 10.9554 6.06717 10.75 5.55 10.75H1V1Z" stroke="#646574" stroke-linecap="round" stroke-linejoin="round"/>
<path d="M14 1H10.1C9.41044 1 8.74912 1.27393 8.26152 1.76152C7.77393 2.24912 7.5 2.91044 7.5 3.6V12.7C7.5 12.1828 7.70545 11.6868 8.07114 11.3211C8.43684 10.9554 8.93283 10.75 9.45 10.75H14V1Z" stroke="#646574" stroke-linecap="round" stroke-linejoin="round"/>
</svg>
