<svg width="60" height="60" viewBox="0 0 60 60" fill="none" xmlns="http://www.w3.org/2000/svg">
<path fill-rule="evenodd" clip-rule="evenodd" d="M6.32733 3.06605C4.17814 3.46908 2.5255 4.72827 1.61532 6.65631C1.15421 7.63321 1.00557 8.32184 1.00027 9.50682C0.996312 10.3653 1.0348 10.6935 1.20466 11.2507C1.46156 12.0938 1.8171 12.826 2.25888 13.4221C2.68483 13.9967 8.65815 20.1347 8.72496 20.0664C8.7523 20.0384 8.71057 19.7717 8.63225 19.4737C8.44333 18.7556 8.3669 17.3108 8.48416 16.6733L8.57821 16.1618L6.43137 13.9441C5.25053 12.7245 4.20683 11.5685 4.11187 11.3753C3.4176 9.96189 3.49852 8.51687 4.34189 7.26789C4.69114 6.75075 5.51085 6.14534 6.17078 5.91711C7.04273 5.6156 8.08356 5.68512 8.91667 6.10046C9.47337 6.37807 9.85688 6.73788 12.7826 9.72779C15.7388 12.7488 16.0579 13.1046 16.3345 13.6887C16.6234 14.2988 16.6384 14.3805 16.6384 15.3438C16.6384 16.2672 16.6161 16.4038 16.3871 16.8806C16.0156 17.654 15.4431 18.2531 14.6869 18.6594C14.1339 18.9566 13.9254 19.0171 13.335 19.0522C12.951 19.0749 12.6369 19.1108 12.6369 19.1322C12.6369 19.3143 13.0405 19.8161 13.8352 20.6219L14.7764 21.5763L15.2008 21.4284C16.4203 21.0035 17.8275 19.8035 18.5066 18.6094C19.6991 16.5123 19.6352 13.7782 18.3463 11.7545C17.9593 11.147 12.1005 5.05212 11.2684 4.39163C10.6841 3.92773 9.64664 3.39781 8.93645 3.20058C8.34145 3.03525 6.89041 2.96049 6.32733 3.06605ZM51.8872 3.02945C51.7883 3.05281 51.4848 3.11718 51.2128 3.17225C50.5376 3.30926 49.3471 3.88957 48.7194 4.38786C47.884 5.05102 42.0251 11.145 41.6369 11.7545C40.348 13.7782 40.284 16.5123 41.4766 18.6094C42.1556 19.8035 43.5628 21.0035 44.7823 21.4284L45.2067 21.5763L46.1479 20.6219C46.9426 19.8161 47.3462 19.3143 47.3462 19.1322C47.3462 19.1108 47.0321 19.0749 46.6481 19.0522C46.0577 19.0171 45.8492 18.9566 45.2962 18.6594C44.54 18.2531 43.9675 17.654 43.5961 16.8806C43.367 16.4038 43.3447 16.2672 43.3447 15.3438C43.3447 14.3805 43.3598 14.2988 43.6487 13.6887C43.9253 13.1046 44.2443 12.7488 47.2005 9.72779C50.1263 6.73788 50.5098 6.37807 51.0665 6.10046C51.8974 5.68622 52.9407 5.61569 53.8072 5.91536C54.701 6.22442 55.511 6.91948 55.9169 7.72571C56.5404 8.96366 56.4698 10.4517 55.7345 11.569C55.599 11.775 54.569 12.8904 53.4456 14.0476L51.4031 16.1516L51.4981 16.6682C51.6161 17.3102 51.5404 18.7535 51.3509 19.4737C51.2726 19.7717 51.2316 20.0393 51.2601 20.0683C51.2885 20.0975 52.7563 18.633 54.5219 16.814C57.9143 13.3191 58.1715 12.9993 58.6236 11.7177C59.8661 8.1955 57.9191 4.24864 54.4499 3.25703C53.8084 3.07368 52.2756 2.93759 51.8872 3.02945ZM12.592 11.8921C11.2856 12.5469 10.2005 13.6659 9.62488 14.9516C8.63783 17.1563 8.93034 19.8987 10.3438 21.6907C10.9524 22.4624 16.7103 28.3281 17.3182 28.7957C18.5127 29.7145 20.1417 30.1603 21.7128 29.9984C24.9527 29.6643 27.3825 26.9426 27.4002 23.6276C27.4026 23.1655 27.3548 22.5405 27.294 22.2389C27.1687 21.617 26.7706 20.5411 26.6659 20.5411C26.4933 20.5411 25.3295 21.7687 25.048 22.2477C24.7699 22.721 24.7383 22.8402 24.7619 23.3276C24.9067 26.3137 21.7444 28.3001 19.2011 26.8206C18.9674 26.6847 17.4427 25.2015 15.5927 23.3103C12.1038 19.7439 11.9533 19.5496 11.738 18.3357C11.559 17.3262 11.8857 16.1034 12.5568 15.2707C13.1422 14.5446 14.4577 13.9205 15.4033 13.9205C15.7762 13.9205 15.7866 13.9129 15.6847 13.7136C15.4835 13.3202 13.6887 11.5298 13.4964 11.5306C13.3946 11.5311 12.9876 11.6938 12.592 11.8921ZM45.353 12.5182C44.8312 13.062 44.3566 13.5998 44.2984 13.7136C44.1966 13.9129 44.2069 13.9205 44.5799 13.9205C45.5254 13.9205 46.8409 14.5446 47.4263 15.2707C48.1001 16.1067 48.4224 17.2877 48.2511 18.2936C48.0384 19.5427 47.8989 19.7239 44.3904 23.3103C42.558 25.1834 41.0125 26.6874 40.7798 26.824C39.7585 27.4235 38.4431 27.4844 37.3899 26.9812C36.2292 26.4265 35.476 25.3832 35.2426 24.0064C35.0742 23.0135 34.6814 22.2416 33.9167 21.4015C33.5779 21.0294 33.2673 20.725 33.2263 20.725C33.1853 20.725 33.0725 20.9422 32.9758 21.2077C32.4165 22.7425 32.4494 24.5914 33.0629 26.1041C33.8488 28.042 35.7913 29.6126 37.8348 29.9623C38.3846 30.0563 39.713 30.0287 40.2415 29.9123C40.9764 29.7503 42.027 29.2684 42.6305 28.8163C43.2413 28.3587 48.9791 22.5245 49.6384 21.6907C51.7621 19.0044 51.2226 14.6962 48.498 12.5852C47.9053 12.126 46.7598 11.5298 46.4702 11.5298C46.3749 11.5298 45.8901 11.9586 45.353 12.5182ZM19.6507 12.9886C19.6507 13.0567 19.7163 13.3666 19.7965 13.6774C19.9527 14.2832 20.0061 15.8084 19.8951 16.4952L19.8283 16.909L20.5583 17.6676C20.9598 18.0848 21.2949 18.4262 21.3029 18.4262C21.3503 18.4262 23.1576 16.5561 23.1576 16.5071C23.1576 16.4743 22.3686 15.6413 21.4042 14.6561C20.4398 13.671 19.6507 12.9205 19.6507 12.9886ZM38.4416 14.7988L36.6032 16.681L37.2329 17.3008C37.5791 17.6415 37.9779 18.0756 38.119 18.2652C38.2601 18.4549 38.4052 18.6101 38.4417 18.6101C38.4781 18.6101 38.878 18.2279 39.3304 17.7608L40.1531 16.9115L40.0854 16.4505C39.9734 15.688 40.0251 14.364 40.1946 13.6572C40.2821 13.2915 40.3373 12.9752 40.3169 12.9545C40.2966 12.9337 39.4527 13.7636 38.4416 14.7988ZM28.7776 14.9348C23.566 15.4975 19.6526 19.9635 19.651 25.3502L19.6507 26.3434L19.9879 26.4996C20.2206 26.6074 20.5627 26.6559 21.0915 26.6559C21.7766 26.6559 21.9218 26.6238 22.4597 26.3529C23.3298 25.9146 23.5673 25.5808 23.6375 24.697C23.8784 21.6653 26.24 19.2702 29.3217 18.9318C30.0125 18.856 31.1991 19.0204 31.9365 19.2941C33.9598 20.0452 35.5493 21.932 35.9304 24.0352C36.0798 24.8599 36.1757 25.0959 36.5678 25.603C37.0419 26.2163 37.8618 26.623 38.739 26.68C39.1747 26.7083 39.489 26.68 39.6947 26.5938L40.0011 26.4654L39.9877 25.3192C39.9477 21.8959 38.563 19.0217 35.985 17.0107C33.9656 15.4354 31.2871 14.664 28.7776 14.9348ZM36.1061 31.3878V32.6716L38.0058 32.6981C39.7217 32.7221 39.9109 32.7096 39.9616 32.5693C40.009 32.438 40.0181 31.6705 39.982 30.8627C39.973 30.6619 39.9448 30.6558 39.0344 30.6558C38.0796 30.6558 37.0875 30.4943 36.4999 30.2433C36.3207 30.1667 36.1588 30.1041 36.1401 30.1041C36.1214 30.1041 36.1061 30.6818 36.1061 31.3878ZM22.8429 30.4538C22.5239 30.5555 21.9951 30.5989 21.022 30.6034L19.6507 30.6098V31.6754V32.7411L19.9879 32.7194C20.1734 32.7076 21.0636 32.6936 21.9662 32.6883L23.6072 32.6787V31.4833C23.6072 30.131 23.6551 30.1954 22.8429 30.4538ZM17.2247 33.4835C17.0526 33.5718 16.8199 33.7848 16.7076 33.9567L16.5035 34.2691V44.5378C16.5035 56.0193 16.462 55.2792 17.1511 56.0797C17.3515 56.3125 17.7227 56.6148 17.9761 56.7515L18.4368 57H29.9916H41.5463L42.007 56.7515C42.2604 56.6148 42.6317 56.3125 42.832 56.0797C43.5212 55.2792 43.4796 56.0193 43.4796 44.5378V34.2691L43.2755 33.9567C43.1633 33.7848 42.9306 33.5718 42.7585 33.4835C42.465 33.3327 41.669 33.3226 29.9916 33.3226C18.3142 33.3226 17.5181 33.3327 17.2247 33.4835ZM31.2371 40.6245C31.8452 40.9411 32.2495 41.3534 32.5657 41.9795C32.8973 42.6361 32.9258 43.7134 32.629 44.3728C32.3949 44.8929 31.8204 45.5487 31.3926 45.7843L31.0788 45.9571L31.0523 48.3687C31.0271 50.6481 31.0153 50.7943 30.8376 51.0396C30.7343 51.1823 30.487 51.3577 30.2883 51.4296C29.9575 51.5492 29.8972 51.5448 29.577 51.3773C29.0697 51.112 28.9053 50.7267 28.916 49.8277C28.9209 49.4232 28.9221 48.3878 28.9186 47.5268L28.9125 45.9616L28.5947 45.7866C28.161 45.5478 27.5953 44.9011 27.3613 44.3768C27.0625 43.7071 27.0877 42.6323 27.4174 41.9795C27.808 41.2061 28.4278 40.6754 29.2722 40.3913C29.7242 40.2392 30.7251 40.358 31.2371 40.6245Z" fill="#D8B919"/>
</svg>
