<svg width="25" height="25" viewBox="0 0 25 25" fill="none" xmlns="http://www.w3.org/2000/svg">
<path fill-rule="evenodd" clip-rule="evenodd" d="M14.1596 1.0136C14.0095 1.02471 13.6187 1.05284 13.2912 1.07611C12.9637 1.09938 12.679 1.12489 12.6585 1.13284C12.638 1.14077 12.4761 1.16768 12.2988 1.19266C11.8164 1.26055 11.3128 1.34764 11.2567 1.37284C11.2294 1.3851 11.1233 1.41219 11.021 1.43304C10.7511 1.48804 10.1003 1.66254 10.0162 1.70247C9.98887 1.71544 9.89956 1.74496 9.81768 1.76807C9.7358 1.79119 9.65822 1.82032 9.64525 1.83278C9.63229 1.84524 9.60604 1.85544 9.58694 1.85544C9.56784 1.85544 9.42215 1.9087 9.26316 1.97379C8.17998 2.41729 7.48741 2.85598 6.87724 3.48499C6.4459 3.92964 6.18045 4.34788 6.05479 4.78093C6.02747 4.87497 5.99341 4.99208 5.97904 5.04114C5.96341 5.09456 5.94907 5.54451 5.94329 6.16251C5.93798 6.7302 5.92833 7.21955 5.92185 7.24996C5.91324 7.29032 5.88163 7.31214 5.80457 7.3309C5.42705 7.42282 4.82236 7.61149 4.60743 7.70441C4.56649 7.72213 4.48834 7.75093 4.43375 7.76841C4.37917 7.78592 4.32335 7.8088 4.3097 7.81928C4.29605 7.82975 4.25698 7.8468 4.22286 7.85718C4.18875 7.86755 4.10189 7.90336 4.02984 7.93674C3.95781 7.97015 3.89323 7.99747 3.88638 7.99747C3.85117 7.99747 3.30732 8.28944 3.03292 8.45563C2.46669 8.79856 1.92626 9.27685 1.60682 9.71775C1.47359 9.90163 1.26257 10.2708 1.2321 10.3733C1.22263 10.4052 1.19528 10.4772 1.17134 10.5333C1.14742 10.5894 1.11458 10.7155 1.09837 10.8136C1.08217 10.9118 1.05208 11.0608 1.03148 11.1449C0.999603 11.2753 0.995484 11.5314 1.0036 12.878L1.0131 14.4581L1.07696 14.6492C1.2977 15.3099 1.71733 15.8292 2.4487 16.3469C2.70978 16.5317 2.72529 16.5416 2.99714 16.6964L3.16841 16.7939V18.4803C3.16841 20.2703 3.16823 20.2671 3.28946 20.5665C3.52136 21.139 4.03517 21.7125 4.71642 22.1592C5.16622 22.4542 5.74115 22.7517 6.23253 22.9439C6.36217 22.9945 6.49056 23.0462 6.51785 23.0586C6.59846 23.0952 7.0198 23.2379 7.04744 23.2379C7.06143 23.2379 7.10431 23.2513 7.14271 23.2678C7.46076 23.404 8.79476 23.7002 9.48274 23.7875C9.65331 23.8091 9.83195 23.8377 9.87971 23.851C9.95756 23.8728 10.2776 23.8986 11.4428 23.9771C11.8915 24.0074 12.5249 24.0076 12.9314 23.9777C13.102 23.9652 13.4314 23.942 13.6633 23.9262C13.8953 23.9104 14.1633 23.887 14.2588 23.8744C15.2227 23.7463 15.6597 23.6665 16.4918 23.4666C16.6146 23.4372 16.7374 23.4033 16.7647 23.3915C16.792 23.3797 16.8701 23.3564 16.9384 23.3398C17.0066 23.3232 17.0847 23.3006 17.112 23.2896C17.1393 23.2786 17.322 23.2161 17.518 23.1509C17.8628 23.036 18.249 22.8906 18.4022 22.818C18.7537 22.6513 19.3687 22.3339 19.4691 22.2673C20.0107 21.9081 20.2447 21.7211 20.5235 21.4244C20.8955 21.0286 21.0814 20.7084 21.1812 20.2911L21.2433 20.0312L21.2428 18.4042L21.2422 16.7773L21.1789 16.5119C20.9694 15.6338 20.2994 14.8285 19.2269 14.1658L19.0839 14.0774L19.0904 13.019L19.0969 11.9605L19.2706 11.9207C19.3661 11.8988 19.461 11.8732 19.4815 11.8638C19.5019 11.8544 19.5857 11.83 19.6675 11.8094C20.426 11.6191 21.5729 11.1341 22.2212 10.7296C23.2109 10.1122 23.7541 9.49927 23.943 8.78648C23.9918 8.60248 23.9942 8.52082 23.9993 6.87246C24.0021 5.92547 23.9963 5.13704 23.9863 5.12038C23.9762 5.10371 23.9475 5.00166 23.9223 4.89358C23.8971 4.78552 23.8591 4.66268 23.8377 4.62063C23.8163 4.57858 23.7988 4.53405 23.7987 4.52172C23.7984 4.47969 23.5406 4.0351 23.4275 3.88154C23.2291 3.61234 22.8316 3.21989 22.5084 2.97413C22.3898 2.88404 22.0854 2.67098 22.0751 2.67098C22.0706 2.67098 21.9943 2.62574 21.9057 2.57044C21.7462 2.47089 21.409 2.29175 21.1934 2.192C20.9635 2.08565 20.7255 1.98286 20.7092 1.98286C20.6999 1.98286 20.6571 1.96655 20.6141 1.94662C20.4165 1.85508 19.7636 1.6451 19.3698 1.5465C19.2606 1.51915 19.149 1.48648 19.1217 1.47387C19.0944 1.46125 18.9828 1.43197 18.8736 1.40875C18.4457 1.31779 18.4871 1.30316 18.3543 1.30316C18.1741 1.30316 18.1105 1.21722 18.0062 1.21722C17.9018 1.21722 17.9968 1.22994 17.6617 1.18731C17.2716 1.13766 16.8075 1.09181 16.1692 1.03985C15.7052 1.00205 14.5237 0.986632 14.1596 1.0136ZM16.5662 2.4387C16.7163 2.45269 16.9229 2.47662 17.0252 2.49184C17.1275 2.50705 17.3229 2.5358 17.4594 2.55571C18.2393 2.66945 18.4783 2.72108 19.345 2.96309C19.7227 3.06858 20.4355 3.34184 20.7964 3.51955C21.0354 3.63716 21.4301 3.87079 21.6286 4.01208C22.2994 4.48945 22.6836 5.05307 22.6813 5.55618C22.6787 6.10963 22.1986 6.74376 21.4043 7.24284C21.1488 7.40338 20.5345 7.72062 20.3871 7.7682C20.3325 7.78582 20.2766 7.80873 20.263 7.8191C20.2385 7.83778 19.621 8.05563 19.3574 8.13861C19.1432 8.20602 18.6763 8.32364 18.5456 8.34306C18.4804 8.35277 18.4158 8.36908 18.4022 8.37935C18.3885 8.3896 18.2881 8.4119 18.1789 8.42892C18.0697 8.44594 17.9357 8.47184 17.8812 8.48647C17.7936 8.50991 17.4024 8.56466 16.8267 8.63398C15.8701 8.7492 14.0531 8.74925 13.1051 8.63405C12.6661 8.58071 12.3134 8.53206 12.1747 8.50568C12.0928 8.49011 11.9142 8.45621 11.7777 8.43037C11.3612 8.35147 10.8566 8.22656 10.5248 8.12024C10.1877 8.0122 9.70303 7.83992 9.63765 7.8049C9.60021 7.78485 9.56148 7.76836 9.55159 7.76826C9.54169 7.76818 9.45795 7.73281 9.36551 7.68966C8.65237 7.35679 8.17266 7.04011 7.80801 6.66139C7.57179 6.41607 7.43394 6.21373 7.33787 5.97137C7.27751 5.81909 7.26709 5.75752 7.26662 5.55085C7.26615 5.33818 7.2751 5.28685 7.34048 5.12853C7.44922 4.86519 7.58082 4.67361 7.82072 4.42949C8.01111 4.23572 8.32035 3.98708 8.49031 3.89108C8.52442 3.87183 8.55831 3.84788 8.56563 3.83789C8.57876 3.81995 9.27661 3.454 9.42071 3.38947C9.60758 3.30582 9.93141 3.18069 9.96104 3.18069C9.97908 3.18069 10.0045 3.17095 10.0174 3.15908C10.0547 3.12488 10.7948 2.89466 10.9714 2.86232C11.0191 2.85356 11.0805 2.83587 11.1078 2.82302C11.1692 2.7941 11.5741 2.70732 11.8894 2.65548C12.019 2.63418 12.1642 2.60566 12.2119 2.59212C12.2597 2.57859 12.4383 2.55102 12.6089 2.53086C12.7795 2.51067 13.0083 2.4821 13.1175 2.46737C13.2267 2.45262 13.4835 2.43029 13.6882 2.41773C14.1506 2.38934 16.1968 2.40427 16.5662 2.4387ZM7.32877 8.05097C7.35678 8.06636 7.44267 8.12656 7.51964 8.18477C7.67661 8.30345 7.66994 8.29902 7.99409 8.49946C8.2355 8.64876 8.80094 8.94416 8.91209 8.97908C8.9462 8.98978 9.01302 9.01988 9.06058 9.04595C9.10814 9.07202 9.1567 9.09336 9.16848 9.09336C9.18027 9.09336 9.2251 9.10995 9.2681 9.13023C9.3566 9.172 9.58362 9.25448 9.76806 9.3119C9.83629 9.33313 9.91444 9.36083 9.94173 9.37347C9.99808 9.39954 10.2907 9.48586 10.5124 9.5418C10.5943 9.56247 10.678 9.58648 10.6985 9.59514C10.807 9.64109 11.6422 9.81034 12.1127 9.8817C12.2832 9.9076 12.5065 9.94172 12.6089 9.95755C12.924 10.0063 13.6578 10.0635 14.3159 10.0907C15.1985 10.1272 16.617 10.0648 17.3229 9.95854C17.4253 9.94315 17.6542 9.90872 17.8315 9.88203C18.214 9.82454 18.5498 9.75932 18.9232 9.67007C19.0733 9.63419 19.2743 9.5864 19.3698 9.56387C19.4653 9.54134 19.5658 9.51275 19.5931 9.50034C19.6204 9.48792 19.693 9.46509 19.7544 9.44959C20.0013 9.38726 20.6637 9.14435 20.9388 9.01527C20.9967 8.98813 21.0522 8.96593 21.0621 8.96593C21.0841 8.96593 21.7961 8.60232 21.8137 8.58214C21.8205 8.57432 21.8986 8.52485 21.9873 8.47222C22.2579 8.31169 22.3219 8.26928 22.4635 8.15676C22.5385 8.09717 22.6127 8.04845 22.6285 8.04845C22.6654 8.04845 22.6671 8.38045 22.6309 8.5144C22.6165 8.56743 22.573 8.65918 22.5342 8.71828C22.4675 8.81969 22.2162 9.07648 22.0845 9.17769C21.7531 9.43244 21.4723 9.60506 21.0596 9.8079C20.6551 10.0067 20.3772 10.1305 20.2843 10.1533C20.2453 10.1629 20.2022 10.1788 20.1886 10.1886C20.1531 10.2141 19.7564 10.3524 19.4939 10.4307C19.371 10.4674 19.2371 10.508 19.1961 10.5211C18.9676 10.5937 18.4291 10.7214 18.0672 10.7886C17.9649 10.8076 17.7863 10.8416 17.6703 10.8643C17.5543 10.8869 17.3142 10.9225 17.1368 10.9434C16.9594 10.9644 16.725 10.992 16.6158 11.0048C16.1615 11.0581 14.9769 11.083 14.2178 11.0553C13.8037 11.0402 13.3755 11.0174 13.2664 11.0047C13.1572 10.9919 12.9172 10.9639 12.7329 10.9424C12.5487 10.9209 12.3366 10.8917 12.2615 10.8776C12.1865 10.8634 12.019 10.8344 11.8894 10.8132C11.7597 10.792 11.6369 10.7677 11.6165 10.7591C11.596 10.7506 11.4788 10.7229 11.3559 10.6975C11.0606 10.6364 10.6777 10.5392 10.4628 10.4707C10.3672 10.4402 10.2221 10.3951 10.1402 10.3704C9.92255 10.3048 9.45748 10.1261 9.17129 9.99807C8.24113 9.58212 7.52733 9.05411 7.32807 8.63459C7.25838 8.48782 7.24977 8.44518 7.24977 8.24634C7.24977 8.12348 7.2561 8.02296 7.26381 8.02296C7.27153 8.02296 7.30076 8.03555 7.32877 8.05097ZM6.02018 8.91496C6.2266 9.52274 6.70059 10.0817 7.44094 10.5905C7.56653 10.6768 7.70609 10.7668 7.75107 10.7904C7.79603 10.8141 7.8384 10.8408 7.84523 10.8497C7.86862 10.8803 8.62669 11.2532 8.87487 11.3563C9.28966 11.5285 9.45242 11.5909 9.48698 11.5911C9.50511 11.5912 9.54903 11.6069 9.58458 11.6259C9.62014 11.645 9.70946 11.6753 9.78307 11.6934C9.85668 11.7115 9.93367 11.7358 9.95414 11.7475C10.0125 11.7808 10.5731 11.9287 11.0582 12.0389C11.7177 12.1887 12.5348 12.3111 13.254 12.368C13.5201 12.389 13.8606 12.4188 14.0107 12.4341C14.5677 12.4909 16.4222 12.4271 17.0603 12.3291C17.3211 12.2891 17.3254 12.3221 17.0892 12.5493C16.8981 12.7331 16.8266 12.7891 16.4707 13.0338C15.9963 13.36 14.9107 13.8316 14.2464 14.0002C14.1577 14.0227 13.9958 14.0642 13.8866 14.0924C13.36 14.2286 12.7555 14.3397 12.1747 14.4071C11.9973 14.4277 11.7628 14.4566 11.6537 14.4712C11.2336 14.5276 10.0971 14.5549 9.36131 14.5262C8.97096 14.5109 8.57342 14.4866 8.4779 14.4721C8.38238 14.4575 8.1535 14.4288 7.96928 14.4082C7.51609 14.3575 7.151 14.3039 6.92723 14.2552C6.48912 14.1599 6.40792 14.1417 6.20772 14.0933C6.09173 14.0653 5.89635 14.0122 5.77353 13.9754C5.65072 13.9385 5.48883 13.8905 5.41378 13.8687C5.33873 13.8468 5.26615 13.8199 5.25251 13.8088C5.23886 13.7977 5.18862 13.7801 5.14086 13.7696C5.0931 13.7592 4.95912 13.7106 4.84313 13.6617C4.72714 13.6127 4.582 13.5521 4.52059 13.527C4.24023 13.4123 3.67765 13.0997 3.40411 12.9067C3.00123 12.6223 2.64401 12.2409 2.4905 11.9313C2.42736 11.804 2.33725 11.4689 2.33725 11.3616C2.33725 11.223 2.43265 10.9142 2.52866 10.742C2.79627 10.2621 3.42686 9.73931 4.16084 9.38873C4.24271 9.34961 4.34319 9.30096 4.38413 9.28062C4.42507 9.26026 4.55905 9.20325 4.68186 9.15394C4.80467 9.10462 4.9219 9.05551 4.94237 9.04481C4.96284 9.03408 5.11357 8.9817 5.27732 8.92841C5.44107 8.87515 5.63645 8.81031 5.71151 8.78434C5.92661 8.70992 5.95455 8.72175 6.02018 8.91496ZM2.46371 13.8873C2.66884 14.0717 3.35536 14.4877 3.77684 14.683C3.89251 14.7366 4.00589 14.7906 4.02879 14.8031C4.12489 14.8554 4.55696 15.0196 4.88035 15.1267C5.07139 15.1899 5.25003 15.2514 5.27732 15.2633C5.30461 15.2753 5.39951 15.3033 5.48821 15.3256C5.57691 15.3479 5.76113 15.3946 5.89759 15.4292C6.60241 15.6085 7.51001 15.7598 8.40347 15.847C8.83991 15.8897 10.6323 15.9069 11.2691 15.8745C11.6034 15.8575 11.9105 15.8336 11.9514 15.8214C11.9923 15.8091 12.1933 15.7814 12.398 15.7598C12.9536 15.7012 13.7051 15.5657 14.234 15.4288C14.5627 15.3437 14.8208 15.2729 14.8667 15.2552C14.8871 15.2473 15.0323 15.1989 15.1892 15.1475C15.3461 15.0962 15.4969 15.0436 15.5241 15.0308C15.5514 15.0179 15.6184 14.9911 15.673 14.9711C16.1952 14.78 16.8495 14.4486 17.2926 14.1508C17.5309 13.9906 17.5457 13.9801 17.6215 13.9165C17.7338 13.8223 17.7447 13.8381 17.7447 14.0955C17.7447 14.3235 17.7416 14.3367 17.6559 14.4714C17.4076 14.862 16.8632 15.2744 16.0993 15.6506C15.9653 15.7166 15.8507 15.7706 15.8447 15.7706C15.8387 15.7706 15.7864 15.7929 15.7286 15.8201C15.5675 15.8959 15.185 16.0447 14.9975 16.1045C14.9051 16.134 14.8071 16.1686 14.7798 16.1813C14.7132 16.2124 14.4205 16.2992 14.2216 16.3467C14.1329 16.368 14.038 16.3957 14.0107 16.4083C13.9834 16.4209 13.8885 16.4441 13.7998 16.4599C13.7111 16.4757 13.6106 16.4993 13.5765 16.5123C13.4993 16.5419 13.0541 16.626 12.7081 16.6764C12.5648 16.6973 12.403 16.7248 12.3484 16.7376C12.2938 16.7504 12.104 16.7738 11.9266 16.7897C11.7492 16.8055 11.4318 16.835 11.2213 16.8552C10.7158 16.9037 9.39692 16.9042 8.88507 16.8559C8.67477 16.8361 8.39665 16.8124 8.26701 16.8032C8.13737 16.7941 7.95874 16.7751 7.87004 16.7609C7.78134 16.7468 7.56921 16.7141 7.39863 16.6881C6.90865 16.6137 6.10967 16.4519 6.02164 16.4093C5.99435 16.3961 5.91074 16.3727 5.83586 16.3572C5.68734 16.3267 5.30709 16.2146 5.2277 16.178C5.20041 16.1655 5.12225 16.1379 5.05402 16.1168C4.82487 16.0459 4.63383 15.9736 4.60936 15.9484C4.59602 15.9347 4.56944 15.9235 4.55029 15.9235C4.50144 15.9235 3.98423 15.6858 3.70214 15.5337C3.12449 15.2223 2.67574 14.8575 2.45979 14.5238C2.41969 14.4618 2.38687 14.3908 2.38687 14.366C2.38687 14.3412 2.3757 14.3138 2.36206 14.3052C2.34841 14.2965 2.33725 14.1945 2.33725 14.0785C2.33725 13.8144 2.35414 13.7888 2.46371 13.8873ZM18.8303 15.5585C19.5443 16.0673 19.9143 16.5885 19.9126 17.0831C19.9103 17.7593 19.2796 18.4718 18.1789 19.0419C17.8794 19.1971 17.6264 19.3131 17.5878 19.3131C17.5704 19.3131 17.5455 19.3227 17.5326 19.3344C17.5196 19.3461 17.4532 19.3756 17.385 19.4C17.3167 19.4245 17.2386 19.4545 17.2113 19.4668C17.0906 19.5212 16.5029 19.7062 16.3181 19.748C16.2499 19.7635 16.1717 19.786 16.1444 19.7981C16.1171 19.8102 16.0278 19.8334 15.9459 19.8495C15.8641 19.8657 15.7384 19.8943 15.6668 19.9132C15.5952 19.932 15.4444 19.9603 15.3319 19.9761C15.2193 19.9918 15.1048 20.0147 15.0776 20.0269C15.0503 20.0391 14.8884 20.067 14.7178 20.089C14.5472 20.111 14.3351 20.1393 14.2464 20.152C14.1577 20.1647 13.8786 20.1876 13.6261 20.2028C13.3737 20.2181 13.0108 20.2436 12.8198 20.2594C12.6287 20.2752 12.277 20.2822 12.0382 20.2748C11.5109 20.2587 10.4118 20.1865 10.1827 20.153C10.0911 20.1397 9.87661 20.1111 9.70603 20.0896C9.53546 20.0681 9.37357 20.0402 9.34628 20.0276C9.31898 20.015 9.20175 19.9919 9.08576 19.9763C8.96977 19.9606 8.81905 19.932 8.75082 19.9126C8.68259 19.8933 8.55419 19.8635 8.4655 19.8465C8.3768 19.8294 8.29306 19.8072 8.27942 19.797C8.26577 19.7868 8.20995 19.7708 8.15536 19.7613C7.96896 19.7291 7.14023 19.4552 6.91483 19.3513C6.87389 19.3325 6.74549 19.2751 6.6295 19.2239C5.79633 18.856 5.08273 18.3218 4.77403 17.8349C4.66464 17.6624 4.57778 17.4619 4.60177 17.4372C4.61519 17.4234 4.762 17.4628 5.12845 17.5784C5.40623 17.6661 5.75862 17.7598 5.95961 17.7997C6.06196 17.8199 6.16802 17.8466 6.19532 17.8591C6.22261 17.8715 6.33426 17.8948 6.44342 17.9108C6.55259 17.9269 6.6754 17.9507 6.71634 17.9637C6.8266 17.9989 7.42982 18.0849 7.88244 18.13C8.10078 18.1517 8.31291 18.1797 8.35385 18.1923C8.39479 18.2049 8.79454 18.229 9.2422 18.2459C9.88226 18.2701 10.2294 18.27 10.8673 18.2453C11.3134 18.228 11.6891 18.2032 11.7021 18.1901C11.715 18.177 11.782 18.1657 11.8509 18.165C12.0729 18.1627 13.1868 18.0123 13.3408 17.9639C13.3817 17.951 13.4655 17.9329 13.5269 17.9238C13.5883 17.9147 13.7558 17.8789 13.899 17.8445C14.0423 17.81 14.2824 17.7522 14.4325 17.7162C14.5826 17.6801 14.7277 17.6406 14.755 17.6284C14.7823 17.6162 14.866 17.5901 14.9411 17.5704C15.0161 17.5507 15.1055 17.5231 15.1396 17.5092C15.1737 17.4953 15.3133 17.4474 15.4497 17.4028C15.5862 17.3583 15.7202 17.3117 15.7474 17.2993C15.7747 17.2869 15.8975 17.2355 16.0204 17.1849C16.1432 17.1344 16.291 17.0708 16.3488 17.0435C16.4067 17.0162 16.4601 16.9939 16.4675 16.9939C16.4849 16.9939 16.8733 16.7945 17.05 16.6948C17.1251 16.6525 17.2249 16.5964 17.2718 16.5702C17.3188 16.5439 17.369 16.5137 17.3835 16.5031C17.398 16.4925 17.5322 16.3969 17.6818 16.2906C17.8315 16.1844 18.0206 16.0382 18.102 15.9659C18.2797 15.8081 18.5883 15.4863 18.5883 15.4589C18.5883 15.412 18.6746 15.4476 18.8303 15.5585ZM4.62713 19.629C4.66241 19.6626 4.70035 19.6942 4.71139 19.6991C4.72245 19.7041 4.82678 19.7729 4.94327 19.852C5.05975 19.9311 5.2049 20.026 5.26581 20.0627C5.37602 20.1293 6.05337 20.474 6.19532 20.5357C6.5934 20.709 7.13237 20.907 7.37382 20.9687C7.43523 20.9844 7.5078 21.0076 7.53509 21.0202C7.62689 21.0627 8.18958 21.1999 8.63917 21.2895C8.74152 21.3098 8.88666 21.3396 8.96171 21.3556C9.20262 21.407 9.73203 21.4802 10.1402 21.5184C10.3586 21.5388 10.6153 21.5686 10.7109 21.5844C10.9416 21.6229 12.9288 21.6426 13.3284 21.6105C14.1646 21.5433 14.5675 21.5044 14.6806 21.48C14.7488 21.4653 14.933 21.436 15.09 21.4148C15.2469 21.3937 15.3943 21.3702 15.4176 21.3628C15.4408 21.3554 15.5748 21.3276 15.7153 21.3011C16.1423 21.2206 16.6597 21.0907 17.0376 20.9693C17.1331 20.9386 17.2838 20.8916 17.3725 20.865C17.4612 20.8383 17.5673 20.8002 17.6082 20.7804C17.6492 20.7605 17.7154 20.7358 17.7555 20.7256C17.7955 20.7153 17.8569 20.6916 17.8919 20.6728C17.9269 20.654 17.9636 20.6386 17.9735 20.6385C17.9833 20.6384 18.0524 20.6097 18.1269 20.5746C18.2015 20.5396 18.2705 20.5109 18.2801 20.5109C18.3017 20.5109 19.0133 20.1446 19.1341 20.0713C19.3131 19.9628 19.7764 19.6441 19.7914 19.6193C19.7999 19.6051 19.823 19.5934 19.8427 19.5934C19.8712 19.5934 19.8784 19.6408 19.8782 19.8292C19.878 20.0419 19.871 20.0774 19.8068 20.1924C19.7359 20.3192 19.4024 20.6679 19.2671 20.7564C19.2281 20.7819 19.1906 20.81 19.1837 20.8187C19.1728 20.8327 19.0259 20.9327 18.9064 21.0074C18.8103 21.0675 18.4071 21.301 18.3994 21.301C18.3948 21.301 18.2732 21.3583 18.1293 21.4284C17.9853 21.4985 17.8611 21.5558 17.8533 21.5558C17.8455 21.5558 17.8039 21.5722 17.7609 21.5922C17.5998 21.6673 17.3075 21.7791 17.2237 21.7978C17.1759 21.8084 17.1313 21.825 17.1244 21.8347C17.1176 21.8444 17.045 21.8728 16.9632 21.898C16.564 22.0206 16.379 22.0737 16.2313 22.1082C16.1426 22.1288 16.0477 22.156 16.0204 22.1685C15.9931 22.1811 15.8814 22.2085 15.7723 22.2295C15.6631 22.2504 15.5388 22.2783 15.4961 22.2913C15.4534 22.3044 15.3139 22.3287 15.186 22.3453C15.0581 22.362 14.9312 22.3858 14.9039 22.3984C14.8766 22.4109 14.7035 22.4391 14.5193 22.461C14.3351 22.4828 14.1118 22.5111 14.0231 22.5237C13.2626 22.6318 10.8052 22.6164 10.1402 22.4994C10.0583 22.485 9.86296 22.4564 9.70603 22.4358C9.16814 22.3652 8.71375 22.2753 8.10574 22.1194C7.7835 22.0368 7.53857 21.967 7.48547 21.9427C7.45818 21.9302 7.31304 21.8783 7.16293 21.8275C6.82744 21.7137 6.59636 21.6267 6.57988 21.6079C6.57306 21.6001 6.52282 21.5777 6.46823 21.5581C6.22047 21.4691 5.57314 21.1203 5.32245 20.9407C4.93607 20.6638 4.68491 20.4087 4.56103 20.1671C4.50419 20.0562 4.49578 20.0094 4.49578 19.8039C4.49578 19.5428 4.5128 19.5202 4.62713 19.629Z" fill="#818284"/>
</svg>
