<svg width="24" height="18" viewBox="0 0 24 18" fill="none" xmlns="http://www.w3.org/2000/svg">
<path fill-rule="evenodd" clip-rule="evenodd" d="M15.338 0.0639971C15.3102 0.105859 15.1647 0.389193 15.0147 0.693686C14.8648 0.99818 14.7232 1.24728 14.7002 1.24724C14.6771 1.24724 14.3688 1.21252 14.0151 1.17006C13.46 1.10345 13.1859 1.09266 12.014 1.09118C10.8079 1.08967 10.5789 1.09863 9.96517 1.17122C9.58514 1.21614 9.26779 1.24661 9.25997 1.23891C9.25214 1.23122 9.1086 0.953154 8.94104 0.620999C8.64867 0.0415025 8.63205 0.0170739 8.52996 0.0170739C8.35826 0.0170739 7.28368 0.248317 6.65355 0.420862C5.7303 0.673687 4.82942 0.988022 3.96641 1.35849L3.63727 1.49975L3.39117 1.87437C1.48388 4.77772 0.399651 7.7764 0.0593948 11.0889C-0.0307614 11.9665 -0.0145741 14.634 0.0828717 14.9627C0.112245 15.0617 1.1422 15.7541 1.94949 16.2176C2.7327 16.6672 3.72021 17.1397 4.56363 17.4684C5.21831 17.7236 6.10525 18.0188 6.15775 17.999C6.31287 17.9404 7.45688 16.079 7.4106 15.9604C7.4016 15.9373 7.27589 15.874 7.13127 15.8197C6.76286 15.6814 5.58118 15.1024 5.51046 15.0256C5.45526 14.9655 5.4644 14.9517 5.67062 14.7828C5.79094 14.6843 5.89675 14.6038 5.90572 14.6038C5.91472 14.6038 6.08921 14.674 6.29353 14.7598C9.98068 16.309 13.9819 16.3215 17.6042 14.7953L18.0705 14.5989L18.2851 14.7647C18.4031 14.8559 18.4997 14.9504 18.4997 14.9747C18.4997 14.999 18.4267 15.061 18.3374 15.1124C18.0621 15.2711 17.2114 15.6773 16.8916 15.8027C16.7246 15.8682 16.5766 15.9374 16.5628 15.9564C16.5204 16.0147 17.0062 16.8518 17.5279 17.6192C17.7912 18.0067 17.8002 18.0155 17.9074 17.9928C18.0792 17.9564 19.0409 17.6204 19.5538 17.4175C20.2054 17.1597 21.5673 16.4945 22.1666 16.1413C22.9027 15.7073 23.8619 15.06 23.8938 14.9756C23.9885 14.725 24.0365 12.4768 23.9671 11.5458C23.7067 8.05709 22.5883 4.85789 20.5735 1.83859L20.3465 1.49845L20.0216 1.35814C18.7756 0.819975 17.1856 0.329229 15.909 0.0888473C15.6928 0.0481099 15.4872 0.00877857 15.4522 0.0013622C15.4153 -0.00644082 15.3672 0.0199206 15.338 0.0639971ZM8.68326 7.63879C9.33072 7.86262 9.89327 8.49631 10.0924 9.22603C10.1766 9.53471 10.1763 10.244 10.0918 10.5617C9.87451 11.3782 9.23913 12.0343 8.47654 12.2297C7.52327 12.4739 6.48403 11.907 6.05837 10.9105C5.4147 9.40361 6.36357 7.63243 7.86889 7.53095C8.10212 7.51524 8.46482 7.56326 8.68326 7.63879ZM16.57 7.61046C17.2858 7.81622 17.9002 8.4936 18.0907 9.28695C18.1764 9.64392 18.1478 10.3774 18.0354 10.7015C17.6815 11.7233 16.8567 12.3282 15.8911 12.2742C15.0336 12.2263 14.306 11.6424 13.9676 10.7306C13.8791 10.4923 13.8723 10.4334 13.8725 9.91143C13.8727 9.38564 13.8793 9.33074 13.9731 9.06787C14.3886 7.90321 15.4725 7.29497 16.57 7.61046Z" fill="white"/>
</svg>
