<svg width="25" height="22" viewBox="0 0 25 22" fill="none" xmlns="http://www.w3.org/2000/svg">
<path fill-rule="evenodd" clip-rule="evenodd" d="M2.79343 0.123047C2.08686 0.123033 2.20989 1.49988 3 1.49988C3.06677 1.49988 3.13999 1.919 3.13999 5.36439V9.00102L2.19705 9.39588C1.08879 9.86003 0.640581 10.3 0.72053 10.8451C0.810801 11.4612 1.27842 11.6646 1.95475 11.3822C3.85848 10.5872 4.46956 10.4435 5.60564 10.5239C8.54171 10.7319 11.0387 13.1013 11.3139 15.9406C11.4692 17.5419 11.4794 17.5501 13.3593 17.5501H14.9941L15.0688 18.5941C15.1572 19.8275 15.6516 20.6762 16.6981 21.391C17.6608 22.0484 19.5512 22.1749 20.5627 21.6494C21.8918 20.959 22.7336 19.6811 22.7336 18.3543C22.7336 17.6065 22.7655 17.5501 23.1878 17.5501C23.4374 17.5501 23.8601 17.3931 24.1269 17.2012C26.0175 15.8411 24.6492 11.7399 21.83 10.3167C21.2379 10.0177 20.4186 9.77307 20.3658 9.77307C20.1527 9.77307 19.7323 9.7234 19.4316 9.6626C18.909 9.55708 18.8849 9.51413 18.8849 8.69047V7.82882H19.5962C20.5832 7.82882 20.9842 7.57359 20.9842 6.94507C20.9842 6.29551 20.5808 6.06114 19.465 6.06202C18.4715 6.06273 17.5574 6.55374 17.306 7.22186C17.2122 7.47108 17.1354 8.10737 17.1354 8.63568V9.59632H15.1236C14.0171 9.59632 13.1117 9.5622 13.1117 9.52031C13.1117 9.4786 12.7181 7.77067 12.237 5.72514C11.7559 3.67961 11.3623 1.92413 11.3623 1.82427C11.3623 1.7244 11.6615 1.64257 12.0271 1.64257C12.3927 1.64257 12.7864 1.54712 12.9018 1.43047C13.1803 1.14908 13.0364 0.363968 12.7491 0.123057C12.237 0.123048 3.5 0.123061 2.79343 0.123047ZM10.397 5.31013C10.8655 7.32738 11.2834 9.11679 11.3259 9.287C11.3942 9.56061 11.2546 9.59632 10.1144 9.59614C9.24935 9.59614 8.52299 9.48001 7.90527 9.24264C7.39916 9.04839 7 8.99988 6.48385 8.88932C6.23456 8.83592 6.10478 8.77885 5.43612 8.77885H4.88942V5.15547V1.64257H7.21739H9.54536L10.397 5.31013ZM4.23636 11.5483C2.43462 11.9121 0.977697 13.1315 0.363822 14.7894C-0.610436 17.4202 0.426276 20.2172 2.8244 21.428C4.24371 22.1445 6.07029 22.1917 7.44027 21.5471C11.3693 19.6988 11.4939 13.9536 7.6453 12.0957C6.41528 11.5019 5.32958 11.3276 4.23636 11.5483ZM20.9928 11.8499C22.2238 12.4825 23.104 13.69 23.2194 14.9052C23.2966 15.7159 23.2749 15.7716 22.8396 15.8821C22.4591 15.9786 22.2401 15.8706 21.5923 15.2673C20.6193 14.3611 20.1903 14.1918 18.8679 14.1918C17.5875 14.1918 16.8552 14.4852 16.0531 15.3195C15.471 15.925 15.3774 15.9593 14.3036 15.9593H13.1691L12.8728 14.8826C12.5825 13.8277 11.9923 12.5526 11.4283 11.7615L11.1447 11.3638H15.5958H20.0467L20.9928 11.8499ZM6.55138 13.4634C9.05902 14.6256 9.50337 17.628 7.43869 19.4595C5.8698 20.8512 3.49898 20.4818 2.25811 18.6521C1.89982 18.124 1.82792 17.8067 1.82792 16.7547C1.82792 15.1293 2.32826 14.2793 3.68739 13.5949C4.76609 13.0518 5.58237 13.0143 6.55138 13.4634ZM4.06964 14.89C3.34643 15.3356 3.13999 15.7508 3.13999 16.76C3.13999 17.8237 3.62633 18.5317 4.54828 18.8108C6.0297 19.2592 7.33653 18.3127 7.33793 16.79C7.33968 14.978 5.58395 13.9571 4.06964 14.89ZM19.9524 16.1826C20.2793 16.4026 20.6948 16.8876 20.8755 17.2604C21.1551 17.8368 21.1743 18.0393 21.0036 18.6148C20.773 19.3922 20.0075 20.1182 19.2383 20.289C18.161 20.528 16.6097 19.2343 16.6113 18.0983C16.6127 17.0771 17.8919 15.7847 18.9027 15.7833C19.1531 15.7829 19.6254 15.9625 19.9524 16.1826ZM5.6639 16.608C5.76011 16.8613 5.51992 17.1911 5.23931 17.1911C4.95748 17.1911 4.67914 16.8374 4.77099 16.5958C4.91234 16.2237 5.52114 16.232 5.6639 16.608Z" fill="#818284"/>
</svg>
