<svg width="16" height="22" viewBox="0 0 16 22" fill="none" xmlns="http://www.w3.org/2000/svg">
<path fill-rule="evenodd" clip-rule="evenodd" d="M5.39973 1.23207C5.84426 3.28017 5.79114 5.34228 5.23326 7.70127C4.94582 8.9162 4.47271 10.3894 4.39644 10.3065C4.36313 10.2702 4.26907 9.89874 4.18737 9.48101C4.10576 9.06329 3.97961 8.54354 3.90694 8.32599C3.75809 7.88 3.13508 6.90717 2.99833 6.90717C2.94906 6.90717 2.90874 7.08025 2.90874 7.29181C2.90874 8.33477 2.62191 9.48726 1.93911 11.1878C1.65544 11.8946 1.34503 12.768 1.24939 13.1288C0.73087 15.0847 1.02498 16.8883 2.09375 18.3065C2.82441 19.2762 3.94051 20.1899 4.855 20.5673C5.28805 20.746 6.38136 21 6.71737 21C11.5 21 8.85521 20.3419 8.5 20C8.39814 19.9019 6.71755 19.7975 6.33096 19.7348C5.38588 19.5813 4.63173 19.178 3.79684 18.3797C2.01678 16.6776 1.78597 14.8454 2.97922 11.8922C3.2756 11.1587 3.3083 11.2053 3.38974 12.4768C3.41805 12.9177 3.4632 13.5219 3.49028 13.8195L3.53937 14.3606L4.11268 13.5241C5.08941 12.0993 5.76545 10.5649 6.28187 8.60067C6.59543 7.40793 6.84904 5.95502 6.92118 4.93747L6.985 4.03831L7.54981 4.93494C8.84746 6.99468 9.95752 9.40295 10.3209 10.9467C10.4341 11.4279 10.5432 11.8374 10.5632 11.8567C10.5832 11.8759 10.8388 11.6203 11.131 11.2884C11.6608 10.687 12.1709 9.80312 12.3809 9.12236C12.4418 8.92506 12.5218 8.76371 12.5587 8.76371C12.6478 8.76371 13.2907 10.3587 13.4601 11C14.0678 13.2996 13.7297 15.5707 12.5242 17.2869C12.1371 17.8379 11.2617 18.8051 10.8952 19.0863C10.4181 19.4527 9.96339 19.6511 9.37168 19.7515C6.5 20 8.41427 20.1511 8.5 20.5C8.6307 21.0322 7.5 21 10.0284 20.8325C10.7919 20.6055 11.592 20.0919 12.3522 19.3409C14.5155 17.204 15.3387 14.7344 14.875 11.7729C14.5214 9.51519 13.0075 6.68371 11.6745 5.78717C11.4109 5.60996 11.1826 5.50203 11.1669 5.54717C11.1513 5.59241 11.2014 5.83148 11.2783 6.0784C11.5338 6.89831 11.5501 7.73063 11.3245 8.43603C11.2148 8.77865 11.1054 9.00211 11.0813 8.93249C10.9054 8.42616 9.97269 6.50979 9.47214 5.62658C8.45316 3.82861 7.30383 2.427 6.08068 1.49089C5.72802 1.22084 5.41919 1 5.39438 1C5.36957 1 5.37203 1.10439 5.39973 1.23207Z" fill="#818284" stroke="#818284" stroke-width="0.8"/>
</svg>
