<svg width="25" height="23" viewBox="0 0 25 23" fill="none" xmlns="http://www.w3.org/2000/svg">
<path d="M21.8985 4H4.80278C4.60535 4 4.41234 4.05844 4.24808 4.16795C3.65434 4.56377 3.65434 5.43623 4.24808 5.83205C4.41234 5.94156 4.60535 6 4.80278 6H22.5365C22.8413 6 23.1419 6.07097 23.4146 6.20729C23.7946 6.39729 24.1027 6.70541 24.2927 7.08541C24.429 7.35806 24.5 7.6587 24.5 7.96353V20.2094C24.5 20.4019 24.469 20.5931 24.4081 20.7757C24.1644 21.5068 23.4801 22 22.7094 22H22.5H5.65139C4.57945 22 3.53644 21.6523 2.67889 21.0092L2.52111 20.8908C2.17621 20.6322 1.87782 20.3167 1.63868 19.958C1.22223 19.3333 1 18.5994 1 17.8486V4.92705C1 4.3174 1.14194 3.71611 1.41459 3.17082C1.79459 2.41083 2.41083 1.79459 3.17082 1.41459C3.71611 1.14194 4.3174 1 4.92705 1H18.7469C19.571 1 20.3837 1.19186 21.1208 1.56039C21.6915 1.84575 22.1543 2.30851 22.4396 2.87921L22.5074 3.01481C22.7337 3.46744 22.4046 4 21.8985 4Z" fill="#D8B919" stroke="#D8B919" stroke-linecap="round" stroke-linejoin="round"/>
<path d="M8 10V17L10 15.25L12 17L14 15.25L16 17V10L12 13.5L8 10Z" fill="white" stroke="white" stroke-linecap="round"/>
<circle cx="22" cy="14" r="1" fill="white"/>
</svg>
