<svg width="25" height="25" viewBox="0 0 25 25" fill="none" xmlns="http://www.w3.org/2000/svg">
<path fill-rule="evenodd" clip-rule="evenodd" d="M12.1808 0.045532C12.1077 0.0697135 9.45067 1.38995 6.27633 2.97942C1.69907 5.27134 0.465875 5.91012 0.316667 6.0665C0.117403 6.27529 -0.000846537 6.5773 4.56324e-06 6.87509C0.000696082 7.1103 0.215226 7.5673 0.38933 7.70445C0.464811 7.76389 1.3665 8.22845 2.39308 8.73685L4.25965 9.66123L2.39894 10.5953C1.37554 11.1091 0.461833 11.6013 0.368531 11.6892C-0.126277 12.1552 -0.114468 12.909 0.394649 13.3565C0.504122 13.4528 1.41714 13.9436 2.42351 14.4472L4.25327 15.3628L2.29925 16.3489C0.384329 17.3154 0.3422 17.3401 0.194587 17.5827C-0.088563 18.0483 -0.0417525 18.5875 0.31422 18.9606C0.466514 19.1202 1.67492 19.7469 6.32953 22.0802L12.1542 25H12.5H12.8458L18.7038 22.0629C25.0593 18.8765 24.8031 19.0226 24.949 18.501C25.0362 18.189 24.9885 17.8838 24.8054 17.5827C24.6578 17.3401 24.6157 17.3154 22.7005 16.3488L20.7463 15.3626L22.6093 14.4314C24.5544 13.4592 24.7508 13.3314 24.9181 12.9293C25.081 12.538 24.9912 12.0822 24.687 11.7556C24.5292 11.5863 24.1034 11.3493 22.6128 10.6011L20.7372 9.65958L22.563 8.76449C23.5672 8.27213 24.4692 7.80885 24.5674 7.73492C24.7757 7.57806 24.9993 7.13379 25 6.87509C25.0009 6.55855 24.8787 6.26523 24.6533 6.04333C24.4799 5.87268 23.2837 5.25413 18.6399 2.9341C12.5328 -0.117134 12.5921 -0.0905553 12.1808 0.045532ZM9.53631 12.3142C12.1005 13.6087 12.2099 13.6582 12.5064 13.6582C12.803 13.6582 12.9104 13.6095 15.4851 12.306L18.1561 10.9538L19.6899 11.7203C20.5335 12.1418 21.2238 12.4991 21.2238 12.5143C21.2238 12.5295 19.2609 13.5244 16.8619 14.7252L12.5 16.9085L8.13811 14.7252C5.73908 13.5244 3.77623 12.5297 3.77623 12.5146C3.77623 12.4835 6.75704 10.9778 6.82785 10.9732C6.85327 10.9715 8.07205 11.575 9.53631 12.3142ZM9.52221 18.0009C12.0525 19.2664 12.1997 19.3326 12.4886 19.3348C12.781 19.3371 12.8952 19.2859 15.4923 17.9907L18.1921 16.6443L19.7352 17.4154L21.2783 18.1865L16.8893 20.3841L12.5002 22.5815L8.11168 20.3846L3.72309 18.1876L5.22581 17.4314C6.05228 17.0154 6.75806 16.6738 6.79417 16.6722C6.83029 16.6706 8.0579 17.2685 9.52221 18.0009Z" fill="#818284"/>
</svg>
