<svg width="25" height="25" viewBox="0 0 25 25" fill="none" xmlns="http://www.w3.org/2000/svg">
<path fill-rule="evenodd" clip-rule="evenodd" d="M11.486 0.168591C10.8354 0.405247 10.3703 0.761191 9.97373 1.32598C9.57632 1.892 9.439 2.38442 9.439 3.24285C9.439 4.52122 9.99953 5.3905 11.234 6.02652L11.7741 6.3049V10.3042V14.3035L11.0708 14.4384C10.068 14.6308 9.5036 14.9756 9.46068 15.4221C9.41832 15.862 9.77025 16.1456 10.6996 16.4204C12.108 16.8367 14.8216 16.5482 15.3779 15.9232C15.9009 15.3357 15.276 14.698 13.9229 14.4384L13.2196 14.3035V10.3042V6.3049L13.7597 6.02652C14.5588 5.61483 14.9529 5.23164 15.283 4.54576C15.5433 4.0046 15.5733 3.82674 15.5348 3.05267C15.4848 2.0451 15.2846 1.54397 14.6856 0.926273C13.87 0.0851457 12.5651 -0.223874 11.486 0.168591ZM5.10239 11.7879C2.93131 12.7393 0.974164 13.6214 0.753219 13.7482C0.0594731 14.1462 -0.0322628 14.5097 0.00798978 16.7C0.0392356 18.4034 0.0673679 18.6444 0.268075 18.9287C0.435201 19.1655 1.94356 19.9885 6.12361 22.1238L11.754 25H12.4969H13.2398L18.8701 22.1238C23.0496 19.9887 24.5585 19.1654 24.7256 18.9288C24.9222 18.6503 24.9553 18.4002 24.9872 16.9513C25.0329 14.8683 24.9701 14.4226 24.5738 14.0197C24.3669 13.8094 22.8778 13.1016 20.0491 11.8692C17.73 10.8589 15.7951 10.0322 15.7493 10.0324C15.7035 10.0324 15.6659 10.4018 15.6659 10.8533V11.6743L19.4188 13.3016C21.4829 14.1965 23.2157 14.9684 23.2697 15.0169C23.3236 15.0654 21.2594 16.1773 18.6825 17.4876C14.763 19.4809 13.8719 19.8922 13.229 20.0042C11.8228 20.2495 11.5381 20.1458 6.3013 17.4827C3.72991 16.175 1.67013 15.0654 1.72406 15.0169C1.77799 14.9684 3.51097 14.1965 5.57497 13.3016L9.3278 11.6743V10.8533C9.3278 10.2651 9.28844 10.036 9.18881 10.0451C9.11242 10.0521 7.27347 10.8364 5.10239 11.7879Z" fill="#818284"/>
</svg>
