<svg width="29" height="29" viewBox="0 0 29 29" fill="none" xmlns="http://www.w3.org/2000/svg">
<path d="M14.58 29C10.584 29 7.2 27.632 4.392 24.86C1.584 22.088 0.18 18.776 0.18 14.888C0.18 11 1.584 7.688 4.392 4.916C7.2 2.144 10.584 0.775999 14.58 0.775999C18.54 0.775999 21.924 2.144 24.732 4.916C27.54 7.688 28.944 11 28.944 14.888C28.944 18.776 27.54 22.088 24.732 24.86C21.924 27.632 18.54 29 14.58 29ZM14.58 22.232C16.524 22.232 18.18 21.512 19.548 20.072C20.952 18.632 21.636 16.904 21.636 14.888C21.636 12.836 20.952 11.108 19.548 9.704C18.18 8.264 16.524 7.544 14.58 7.544C12.6 7.544 10.944 8.264 9.54 9.704C8.172 11.108 7.488 12.836 7.488 14.888C7.488 16.904 8.172 18.632 9.54 20.072C10.944 21.512 12.6 22.232 14.58 22.232Z" fill="white"/>
</svg>
