<svg width="60" height="60" viewBox="0 0 60 60" fill="none" xmlns="http://www.w3.org/2000/svg">
<path fill-rule="evenodd" clip-rule="evenodd" d="M11.8683 3.01169C10.6058 3.17121 9.47533 3.88677 8.78996 4.96014C8.72745 5.05804 7.48742 7.51839 6.03439 10.4276C3.22336 16.0555 3.20158 16.1037 3.07135 16.9719C2.97741 17.5982 2.97568 28.5253 3.06945 29.0609C3.21943 29.918 3.57141 30.6151 4.18022 31.2609L4.45747 31.555L4.1842 31.8397C3.58546 32.4636 3.21955 33.1876 3.06945 34.0453C2.97766 34.5697 2.97766 41.2342 3.06945 41.7586C3.21943 42.6157 3.57141 43.3128 4.18022 43.9586L4.45747 44.2527L4.1842 44.5374C3.56473 45.1829 3.17713 45.9755 3.05092 46.8548C3.01653 47.0943 3.00672 48.2444 3.01717 50.8113C3.03151 54.3523 3.03379 54.4374 3.12244 54.7687C3.38201 55.739 3.91777 56.5542 4.66984 57.1234C5.08603 57.4383 5.73036 57.7557 6.22184 57.8881L6.58136 57.9849L30.3305 57.9961C51.3291 58.006 54.1224 57.9999 54.4494 57.9435C55.5946 57.746 56.6265 57.0828 57.2701 56.1306C57.485 55.8129 57.7681 55.1818 57.8726 54.788C57.9668 54.4327 57.9676 54.4038 57.9822 50.8113C57.9926 48.2444 57.9828 47.0943 57.9484 46.8548C57.8222 45.9755 57.4346 45.1829 56.8152 44.5374L56.5419 44.2527L56.8191 43.9586C57.428 43.3128 57.7799 42.6157 57.9299 41.7586C58.0217 41.2342 58.0217 34.5697 57.9299 34.0453C57.7798 33.1876 57.4139 32.4636 56.8152 31.8397L56.5419 31.555L56.8191 31.2609C57.428 30.6151 57.7799 29.918 57.9299 29.0609C58.0257 28.5136 58.0222 17.6097 57.9261 16.9615C57.8 16.112 57.7449 15.9904 54.9472 10.3913C53.4997 7.49426 52.2377 5.00895 52.143 4.86838C51.5327 3.96346 50.7073 3.38881 49.5751 3.08076C49.3143 3.00982 48.3406 3.00568 30.6477 3.00081C20.3888 2.99797 11.9381 3.00284 11.8683 3.01169ZM49.1224 5.16263C49.5089 5.26337 49.8688 5.46911 50.1352 5.74152C50.369 5.98057 50.493 6.21844 53.022 11.279C54.8226 14.882 55.692 16.665 55.7506 16.8751C55.7979 17.0448 55.8485 17.3216 55.8631 17.4904L55.8896 17.7973H30.4997H5.10976L5.13615 17.4904C5.15066 17.3216 5.19101 17.0693 5.22582 16.9296C5.26634 16.767 6.24874 14.752 7.95851 11.325C10.5304 6.16977 10.6368 5.96546 10.87 5.73212C11.1276 5.47432 11.4973 5.26218 11.8588 5.16475C12.2024 5.07214 48.7673 5.07006 49.1224 5.16263ZM12.1749 7.27629C11.941 7.35984 11.7374 7.53151 11.6049 7.75698C11.4418 8.03463 11.438 8.45412 11.5957 8.76124C11.7173 8.99801 11.9826 9.22242 12.2183 9.2879C12.3254 9.31765 16.8302 9.33179 26.2731 9.33191C41.8676 9.33221 40.4095 9.36412 40.7585 9.01489C41.3095 8.46352 41.096 7.54112 40.357 7.28022C40.1954 7.22317 38.603 7.2161 26.2542 7.21775C14.7352 7.21927 12.3062 7.22939 12.1749 7.27629ZM43.8968 7.27629C43.6629 7.35984 43.4593 7.53151 43.3268 7.75698C43.1637 8.03463 43.1599 8.45412 43.3177 8.76124C43.4392 8.99801 43.7045 9.22242 43.9403 9.2879C44.0397 9.31553 44.9333 9.33179 46.3637 9.33191C48.9283 9.33221 48.8971 9.33568 49.2177 9.01489C49.7687 8.46352 49.5552 7.54112 48.8162 7.28022C48.5624 7.19062 44.1466 7.18711 43.8968 7.27629ZM55.8772 24.2642C55.8772 29.0065 55.8853 28.8353 55.6358 29.3506C55.3958 29.8462 54.7675 30.3238 54.1932 30.447C53.8727 30.5158 7.12668 30.5158 6.8062 30.447C6.23187 30.3238 5.6036 29.8462 5.36353 29.3506C5.11403 28.8353 5.12215 29.0065 5.12215 24.2642V19.9136H30.4997H55.8772V24.2642ZM47.841 22.0959C47.4267 22.1852 47.101 22.3193 46.7649 22.5388C45.4934 23.3695 44.974 24.9658 45.5206 26.3635C45.8959 27.3231 46.8255 28.1006 47.8498 28.3116C49.5028 28.652 51.1533 27.5919 51.5678 25.9238C51.5998 25.7947 51.6256 25.4742 51.6256 25.2043C51.6256 24.5059 51.4884 24.0344 51.1205 23.4689C50.4176 22.3883 49.0805 21.8285 47.841 22.0959ZM10.0601 23.1461C9.8238 23.2339 9.62167 23.4051 9.49013 23.6291L9.37289 23.8287L9.35986 25.0985C9.35068 25.9942 9.3618 26.4218 9.39763 26.5501C9.6122 27.3183 10.5842 27.5708 11.1495 27.0052C11.4471 26.7073 11.4666 26.597 11.4663 25.2073C11.4662 24.5048 11.4477 23.9319 11.4223 23.8403C11.3573 23.6061 11.1331 23.3392 10.9008 23.2196C10.6548 23.0929 10.2894 23.0609 10.0601 23.1461ZM15.3471 23.1461C15.1108 23.2339 14.9087 23.4051 14.7771 23.6291L14.6599 23.8287L14.6468 25.0985C14.6377 25.9942 14.6488 26.4218 14.6846 26.5501C14.8992 27.3183 15.8712 27.5708 16.4365 27.0052C16.7341 26.7073 16.7536 26.597 16.7533 25.2073C16.7531 24.5048 16.7347 23.9319 16.7093 23.8403C16.6443 23.6061 16.4201 23.3392 16.1878 23.2196C15.9418 23.0929 15.5763 23.0609 15.3471 23.1461ZM20.6341 23.1461C20.3978 23.2339 20.1956 23.4051 20.0641 23.6291L19.9469 23.8287L19.9338 25.0985C19.9247 25.9942 19.9358 26.4218 19.9716 26.5501C20.1862 27.3183 21.1582 27.5708 21.7235 27.0052C22.0211 26.7073 22.0405 26.597 22.0403 25.2073C22.0401 24.5048 22.0217 23.9319 21.9963 23.8403C21.9313 23.6061 21.707 23.3392 21.4748 23.2196C21.2288 23.0929 20.8633 23.0609 20.6341 23.1461ZM25.9211 23.1461C25.6848 23.2339 25.4826 23.4051 25.3511 23.6291L25.2338 23.8287L25.2208 25.0985C25.2116 25.9942 25.2228 26.4218 25.2586 26.5501C25.4732 27.3183 26.4452 27.5708 27.0104 27.0052C27.3081 26.7073 27.3275 26.597 27.3272 25.2073C27.3271 24.5048 27.3087 23.9319 27.2832 23.8403C27.2183 23.6061 26.994 23.3392 26.7618 23.2196C26.5157 23.0929 26.1503 23.0609 25.9211 23.1461ZM31.2081 23.1461C30.9717 23.2339 30.7696 23.4051 30.6381 23.6291L30.5208 23.8287L30.5078 25.0985C30.4986 25.9942 30.5097 26.4218 30.5456 26.5501C30.7601 27.3183 31.7322 27.5708 32.2974 27.0052C32.5951 26.7073 32.6145 26.597 32.6142 25.2073C32.6141 24.5048 32.5957 23.9319 32.5702 23.8403C32.5053 23.6061 32.281 23.3392 32.0488 23.2196C31.8027 23.0929 31.4373 23.0609 31.2081 23.1461ZM49.0464 24.0723C49.297 24.2009 49.4866 24.3923 49.6229 24.654C49.7043 24.8103 49.7221 24.909 49.7221 25.2043C49.722 25.5117 49.7057 25.5948 49.61 25.7757C49.4766 26.0279 49.2847 26.2172 49.0253 26.3526C48.8692 26.434 48.7703 26.4519 48.4754 26.4519C48.1805 26.4519 48.0817 26.434 47.9256 26.3526C47.6661 26.2172 47.4743 26.0279 47.3409 25.7757C47.2452 25.5948 47.2289 25.5117 47.2288 25.2043C47.2287 24.909 47.2465 24.8103 47.3279 24.654C47.5015 24.3208 47.7738 24.0912 48.1371 23.9716C48.344 23.9034 48.8205 23.9562 49.0464 24.0723ZM35.4376 24.2065C35.2037 24.2901 35.0001 24.4617 34.8677 24.6872C34.7677 24.8574 34.7504 24.9336 34.7504 25.2043C34.7504 25.475 34.7677 25.5511 34.8677 25.7213C35.0001 25.9468 35.2037 26.1185 35.4376 26.202C35.565 26.2475 36.2576 26.2591 38.9408 26.2605C42.7094 26.2627 42.5427 26.276 42.8723 25.9461C43.2861 25.5321 43.2861 24.8765 42.8723 24.4625C42.5427 24.1325 42.7094 24.1459 38.9408 24.148C36.2576 24.1495 35.565 24.1611 35.4376 24.2065ZM54.1939 32.658C54.9865 32.8234 55.6652 33.5026 55.8305 34.2958C55.8623 34.4487 55.8772 35.6004 55.8772 37.9163C55.8772 41.6131 55.8814 41.541 55.6358 42.0482C55.3958 42.5439 54.7675 43.0214 54.1932 43.1447C53.8727 43.2135 7.12668 43.2135 6.8062 43.1447C6.23187 43.0214 5.6036 42.5439 5.36353 42.0482C5.11792 41.541 5.12215 41.6131 5.12215 37.9163C5.12215 35.6004 5.13704 34.4487 5.16889 34.2958C5.32957 33.5248 5.97648 32.8577 6.74411 32.6713C7.04179 32.5991 53.8485 32.5859 54.1939 32.658ZM47.841 34.7936C47.4267 34.8829 47.101 35.0169 46.7649 35.2365C45.4934 36.0672 44.974 37.6635 45.5206 39.0612C45.8959 40.0208 46.8255 40.7983 47.8498 41.0092C49.5028 41.3497 51.1533 40.2896 51.5678 38.6215C51.5998 38.4924 51.6256 38.1719 51.6256 37.9019C51.6256 37.2035 51.4884 36.7321 51.1205 36.1666C50.4176 35.086 49.0805 34.5262 47.841 34.7936ZM10.0601 35.8438C9.8238 35.9316 9.62167 36.1028 9.49013 36.3268L9.37289 36.5264L9.35986 37.7961C9.35068 38.6919 9.3618 39.1195 9.39763 39.2478C9.6122 40.016 10.5842 40.2685 11.1495 39.7029C11.4471 39.405 11.4666 39.2947 11.4663 37.905C11.4662 37.2025 11.4477 36.6296 11.4223 36.538C11.3573 36.3038 11.1331 36.0369 10.9008 35.9173C10.6548 35.7906 10.2894 35.7586 10.0601 35.8438ZM15.3471 35.8438C15.1108 35.9316 14.9087 36.1028 14.7771 36.3268L14.6599 36.5264L14.6468 37.7961C14.6377 38.6919 14.6488 39.1195 14.6846 39.2478C14.8992 40.016 15.8712 40.2685 16.4365 39.7029C16.7341 39.405 16.7536 39.2947 16.7533 37.905C16.7531 37.2025 16.7347 36.6296 16.7093 36.538C16.6443 36.3038 16.4201 36.0369 16.1878 35.9173C15.9418 35.7906 15.5763 35.7586 15.3471 35.8438ZM20.6341 35.8438C20.3978 35.9316 20.1956 36.1028 20.0641 36.3268L19.9469 36.5264L19.9338 37.7961C19.9247 38.6919 19.9358 39.1195 19.9716 39.2478C20.1862 40.016 21.1582 40.2685 21.7235 39.7029C22.0211 39.405 22.0405 39.2947 22.0403 37.905C22.0401 37.2025 22.0217 36.6296 21.9963 36.538C21.9313 36.3038 21.707 36.0369 21.4748 35.9173C21.2288 35.7906 20.8633 35.7586 20.6341 35.8438ZM25.9211 35.8438C25.6848 35.9316 25.4826 36.1028 25.3511 36.3268L25.2338 36.5264L25.2208 37.7961C25.2116 38.6919 25.2228 39.1195 25.2586 39.2478C25.4732 40.016 26.4452 40.2685 27.0104 39.7029C27.3081 39.405 27.3275 39.2947 27.3272 37.905C27.3271 37.2025 27.3087 36.6296 27.2832 36.538C27.2183 36.3038 26.994 36.0369 26.7618 35.9173C26.5157 35.7906 26.1503 35.7586 25.9211 35.8438ZM31.2081 35.8438C30.9717 35.9316 30.7696 36.1028 30.6381 36.3268L30.5208 36.5264L30.5078 37.7961C30.4986 38.6919 30.5097 39.1195 30.5456 39.2478C30.7601 40.016 31.7322 40.2685 32.2974 39.7029C32.5951 39.405 32.6145 39.2947 32.6142 37.905C32.6141 37.2025 32.5957 36.6296 32.5702 36.538C32.5053 36.3038 32.281 36.0369 32.0488 35.9173C31.8027 35.7906 31.4373 35.7586 31.2081 35.8438ZM49.0464 36.7699C49.297 36.8986 49.4866 37.09 49.6229 37.3517C49.7043 37.508 49.7221 37.6067 49.7221 37.9019C49.722 38.2094 49.7057 38.2925 49.61 38.4733C49.4766 38.7256 49.2847 38.9149 49.0253 39.0502C48.8692 39.1317 48.7703 39.1495 48.4754 39.1495C48.1805 39.1495 48.0817 39.1317 47.9256 39.0502C47.6661 38.9149 47.4743 38.7256 47.3409 38.4733C47.2452 38.2925 47.2289 38.2094 47.2288 37.9019C47.2287 37.6067 47.2465 37.508 47.3279 37.3517C47.5015 37.0185 47.7738 36.7889 48.1371 36.6693C48.344 36.6011 48.8205 36.6538 49.0464 36.7699ZM35.4376 36.9042C35.2037 36.9878 35.0001 37.1594 34.8677 37.3849C34.7677 37.5551 34.7504 37.6312 34.7504 37.9019C34.7504 38.1727 34.7677 38.2488 34.8677 38.419C35.0001 38.6445 35.2037 38.8161 35.4376 38.8997C35.565 38.9451 36.2576 38.9567 38.9408 38.9582C42.7094 38.9603 42.5427 38.9737 42.8723 38.6437C43.2861 38.2298 43.2861 37.5741 42.8723 37.1601C42.5427 36.8302 42.7094 36.8436 38.9408 36.8457C36.2576 36.8471 35.565 36.8587 35.4376 36.9042ZM54.1939 45.3557C54.9865 45.5211 55.6652 46.2003 55.8305 46.9934C55.8623 47.1464 55.8772 48.298 55.8772 50.614C55.8772 54.3108 55.8814 54.2387 55.6358 54.7459C55.3958 55.2416 54.7675 55.7191 54.1932 55.8424C53.8727 55.9111 7.12668 55.9111 6.8062 55.8424C6.01425 55.6724 5.33253 54.9909 5.16889 54.2058C5.10375 53.8932 5.10375 47.3061 5.16889 46.9934C5.32957 46.2225 5.97648 45.5553 6.74411 45.369C7.04179 45.2968 53.8485 45.2836 54.1939 45.3557ZM47.841 47.4912C47.4267 47.5806 47.101 47.7146 46.7649 47.9342C45.4934 48.7649 44.974 50.3612 45.5206 51.7588C45.8959 52.7184 46.8255 53.496 47.8498 53.7069C49.1002 53.9644 50.4209 53.4102 51.119 52.335C51.4557 51.8164 51.5915 51.4025 51.6329 50.7681C51.7662 48.7269 49.838 47.0606 47.841 47.4912ZM10.0601 48.5415C9.8238 48.6292 9.62167 48.8005 9.49013 49.0244L9.37289 49.224L9.35986 50.4938C9.35068 51.3896 9.3618 51.8172 9.39763 51.9455C9.6122 52.7137 10.5842 52.9661 11.1495 52.4005C11.4471 52.1026 11.4666 51.9924 11.4663 50.6027C11.4662 49.9002 11.4477 49.3273 11.4223 49.2357C11.3573 49.0015 11.1331 48.7346 10.9008 48.615C10.6548 48.4883 10.2894 48.4563 10.0601 48.5415ZM15.3471 48.5415C15.1108 48.6292 14.9087 48.8005 14.7771 49.0244L14.6599 49.224L14.6468 50.4938C14.6377 51.3896 14.6488 51.8172 14.6846 51.9455C14.8992 52.7137 15.8712 52.9661 16.4365 52.4005C16.7341 52.1026 16.7536 51.9924 16.7533 50.6027C16.7531 49.9002 16.7347 49.3273 16.7093 49.2357C16.6443 49.0015 16.4201 48.7346 16.1878 48.615C15.9418 48.4883 15.5763 48.4563 15.3471 48.5415ZM20.6341 48.5415C20.3978 48.6292 20.1956 48.8005 20.0641 49.0244L19.9469 49.224L19.9338 50.4938C19.9247 51.3896 19.9358 51.8172 19.9716 51.9455C20.1862 52.7137 21.1582 52.9661 21.7235 52.4005C22.0211 52.1026 22.0405 51.9924 22.0403 50.6027C22.0401 49.9002 22.0217 49.3273 21.9963 49.2357C21.9313 49.0015 21.707 48.7346 21.4748 48.615C21.2288 48.4883 20.8633 48.4563 20.6341 48.5415ZM25.9211 48.5415C25.6848 48.6292 25.4826 48.8005 25.3511 49.0244L25.2338 49.224L25.2208 50.4938C25.2116 51.3896 25.2228 51.8172 25.2586 51.9455C25.4732 52.7137 26.4452 52.9661 27.0104 52.4005C27.3081 52.1026 27.3275 51.9924 27.3272 50.6027C27.3271 49.9002 27.3087 49.3273 27.2832 49.2357C27.2183 49.0015 26.994 48.7346 26.7618 48.615C26.5157 48.4883 26.1503 48.4563 25.9211 48.5415ZM31.2081 48.5415C30.9717 48.6292 30.7696 48.8005 30.6381 49.0244L30.5208 49.224L30.5078 50.4938C30.4986 51.3896 30.5097 51.8172 30.5456 51.9455C30.7601 52.7137 31.7322 52.9661 32.2974 52.4005C32.5951 52.1026 32.6145 51.9924 32.6142 50.6027C32.6141 49.9002 32.5957 49.3273 32.5702 49.2357C32.5053 49.0015 32.281 48.7346 32.0488 48.615C31.8027 48.4883 31.4373 48.4563 31.2081 48.5415ZM48.9619 49.3758C49.8239 49.6986 50.0654 50.8708 49.4059 51.5308C49.1438 51.7931 48.8918 51.8906 48.4754 51.8906C48.1805 51.8906 48.0785 51.8721 47.9077 51.788C47.0919 51.3862 46.9085 50.3094 47.5471 49.6703C47.9155 49.3017 48.4607 49.1882 48.9619 49.3758ZM35.4376 49.6019C35.2037 49.6854 35.0001 49.8571 34.8677 50.0826C34.7046 50.3602 34.7007 50.7797 34.8585 51.0868C34.98 51.3236 35.2454 51.548 35.4811 51.6135C35.5834 51.6419 36.803 51.6574 38.9619 51.6575C42.7078 51.6578 42.5428 51.6711 42.8733 51.3405C43.4243 50.7891 43.2108 49.8667 42.4718 49.6058C42.3145 49.5503 41.8321 49.5417 38.943 49.5433C36.258 49.5448 35.565 49.5564 35.4376 49.6019Z" fill="#D8B919"/>
</svg>
