<svg width="36" height="36" viewBox="0 0 36 36" fill="none" xmlns="http://www.w3.org/2000/svg">
<path d="M18.0004 22.364C20.4103 22.364 22.364 20.4103 22.364 18.0004C22.364 15.5904 20.4103 13.6367 18.0004 13.6367C15.5904 13.6367 13.6367 15.5904 13.6367 18.0004C13.6367 20.4103 15.5904 22.364 18.0004 22.364Z" stroke="white" stroke-width="2.5" stroke-linecap="round" stroke-linejoin="round"/>
<path d="M28.7636 22.3636C28.57 22.8024 28.5123 23.289 28.5978 23.7609C28.6834 24.2327 28.9083 24.6681 29.2436 25.0109L29.3309 25.0982C29.6014 25.3684 29.816 25.6892 29.9624 26.0424C30.1088 26.3955 30.1841 26.7741 30.1841 27.1564C30.1841 27.5387 30.1088 27.9172 29.9624 28.2704C29.816 28.6235 29.6014 28.9444 29.3309 29.2145C29.0607 29.485 28.7399 29.6996 28.3867 29.846C28.0336 29.9924 27.655 30.0677 27.2727 30.0677C26.8904 30.0677 26.5119 29.9924 26.1587 29.846C25.8056 29.6996 25.4847 29.485 25.2145 29.2145L25.1273 29.1273C24.7845 28.7919 24.3491 28.567 23.8772 28.4814C23.4054 28.3959 22.9187 28.4537 22.48 28.6473C22.0498 28.8317 21.6829 29.1378 21.4244 29.5281C21.166 29.9183 21.0273 30.3756 21.0255 30.8436V31.0909C21.0255 31.8624 20.719 32.6024 20.1734 33.1479C19.6278 33.6935 18.8879 34 18.1164 34C17.3448 34 16.6049 33.6935 16.0593 33.1479C15.5138 32.6024 15.2073 31.8624 15.2073 31.0909V30.96C15.196 30.4786 15.0402 30.0116 14.76 29.6199C14.4799 29.2282 14.0883 28.9299 13.6364 28.7636C13.1976 28.57 12.711 28.5123 12.2391 28.5978C11.7673 28.6834 11.3319 28.9083 10.9891 29.2436L10.9018 29.3309C10.6316 29.6014 10.3108 29.816 9.95764 29.9624C9.60449 30.1088 9.22594 30.1841 8.84364 30.1841C8.46134 30.1841 8.08279 30.1088 7.72963 29.9624C7.37647 29.816 7.05563 29.6014 6.78545 29.3309C6.51498 29.0607 6.30041 28.7399 6.15401 28.3867C6.00761 28.0336 5.93226 27.655 5.93226 27.2727C5.93226 26.8904 6.00761 26.5119 6.15401 26.1587C6.30041 25.8056 6.51498 25.4847 6.78545 25.2145L6.87273 25.1273C7.20805 24.7845 7.433 24.3491 7.51855 23.8772C7.60411 23.4054 7.54635 22.9187 7.35273 22.48C7.16834 22.0498 6.86219 21.6829 6.47195 21.4244C6.08171 21.166 5.62442 21.0273 5.15636 21.0255H4.90909C4.13755 21.0255 3.39761 20.719 2.85205 20.1734C2.30649 19.6278 2 18.8879 2 18.1164C2 17.3448 2.30649 16.6049 2.85205 16.0593C3.39761 15.5138 4.13755 15.2073 4.90909 15.2073H5.04C5.52145 15.196 5.98837 15.0402 6.38007 14.76C6.77177 14.4799 7.07013 14.0883 7.23636 13.6364C7.42999 13.1976 7.48774 12.711 7.40219 12.2391C7.31663 11.7673 7.09169 11.3319 6.75636 10.9891L6.66909 10.9018C6.39861 10.6316 6.18404 10.3108 6.03764 9.95764C5.89125 9.60449 5.81589 9.22594 5.81589 8.84364C5.81589 8.46134 5.89125 8.08279 6.03764 7.72963C6.18404 7.37647 6.39861 7.05563 6.66909 6.78545C6.93927 6.51498 7.26011 6.30041 7.61326 6.15401C7.96642 6.00761 8.34497 5.93226 8.72727 5.93226C9.10957 5.93226 9.48812 6.00761 9.84128 6.15401C10.1944 6.30041 10.5153 6.51498 10.7855 6.78545L10.8727 6.87273C11.2155 7.20805 11.6509 7.433 12.1228 7.51855C12.5946 7.60411 13.0813 7.54635 13.52 7.35273H13.6364C14.0666 7.16834 14.4335 6.86219 14.6919 6.47195C14.9504 6.08171 15.089 5.62442 15.0909 5.15636V4.90909C15.0909 4.13755 15.3974 3.39761 15.943 2.85205C16.4885 2.30649 17.2285 2 18 2C18.7715 2 19.5115 2.30649 20.057 2.85205C20.6026 3.39761 20.9091 4.13755 20.9091 4.90909V5.04C20.911 5.50805 21.0496 5.96535 21.3081 6.35559C21.5665 6.74583 21.9334 7.05198 22.3636 7.23636C22.8024 7.42999 23.289 7.48774 23.7609 7.40219C24.2327 7.31663 24.6681 7.09169 25.0109 6.75636L25.0982 6.66909C25.3684 6.39861 25.6892 6.18404 26.0424 6.03764C26.3955 5.89125 26.7741 5.81589 27.1564 5.81589C27.5387 5.81589 27.9172 5.89125 28.2704 6.03764C28.6235 6.18404 28.9444 6.39861 29.2145 6.66909C29.485 6.93927 29.6996 7.26011 29.846 7.61326C29.9924 7.96642 30.0677 8.34497 30.0677 8.72727C30.0677 9.10957 29.9924 9.48812 29.846 9.84128C29.6996 10.1944 29.485 10.5153 29.2145 10.7855L29.1273 10.8727C28.7919 11.2155 28.567 11.6509 28.4814 12.1228C28.3959 12.5946 28.4537 13.0813 28.6473 13.52V13.6364C28.8317 14.0666 29.1378 14.4335 29.5281 14.6919C29.9183 14.9504 30.3756 15.089 30.8436 15.0909H31.0909C31.8624 15.0909 32.6024 15.3974 33.1479 15.943C33.6935 16.4885 34 17.2285 34 18C34 18.7715 33.6935 19.5115 33.1479 20.057C32.6024 20.6026 31.8624 20.9091 31.0909 20.9091H30.96C30.4919 20.911 30.0347 21.0496 29.6444 21.3081C29.2542 21.5665 28.948 21.9334 28.7636 22.3636V22.3636Z" stroke="white" stroke-width="2.5" stroke-linecap="round" stroke-linejoin="round"/>
</svg>
