<svg width="23" height="23" viewBox="0 0 23 23" fill="none" xmlns="http://www.w3.org/2000/svg">
<path fill-rule="evenodd" clip-rule="evenodd" d="M15.1995 0.23125C14.7139 0.85914 14.7738 0.97236 16.5452 2.77537L18.3452 4.60761L11.6085 4.66255L4.8717 4.7175L3.63719 5.3256C1.57444 6.34143 0.220424 8.22954 0.027469 10.3593C-0.080016 11.5447 0.12256 12.025 0.730285 12.025C1.15319 12.025 1.64307 11.3444 1.64307 10.7566C1.64307 9.35767 2.83947 7.57335 4.30189 6.79098C5.04226 6.3949 5.26574 6.38083 11.6331 6.32903L18.2006 6.27538L16.607 7.90154C15.7305 8.79583 14.9668 9.66366 14.9096 9.82998C14.7757 10.2209 15.262 10.915 15.6698 10.915C16.123 10.915 21.0681 5.91112 21.0681 5.45269C21.0681 5.00518 16.1195 0 15.6772 0C15.5127 0 15.2979 0.104155 15.1995 0.23125ZM21.5411 11.3263C21.3828 11.5523 21.2512 11.9893 21.249 12.2975C21.2396 13.6053 20.0077 15.3805 18.5706 16.1575C17.8576 16.5429 17.5903 16.5595 11.2631 16.6112L4.69557 16.6648L6.20129 15.1312C8.01799 13.2808 8.20391 12.97 7.82133 12.4237C7.66778 12.2044 7.40009 12.025 7.22637 12.025C6.77312 12.025 1.82807 17.0289 1.82807 17.4873C1.82807 18.0081 6.84749 22.9986 7.28428 22.9123C7.46428 22.8765 7.73605 22.6594 7.88849 22.4294C8.15563 22.0265 8.10068 21.9454 6.35817 20.172L4.5509 18.3324L11.2877 18.2774L18.0245 18.2225L19.259 17.6144C21.3115 16.6036 22.6779 14.6844 22.8726 12.5395C22.9762 11.3969 22.7666 10.915 22.1659 10.915C21.9807 10.915 21.6995 11.1 21.5411 11.3263Z" fill="#D8B919"/>
</svg>
