<svg width="21" height="20" viewBox="0 0 21 20" fill="none" xmlns="http://www.w3.org/2000/svg">
<rect width="20.8333" height="14.4231" rx="2" fill="#0D6FF0"/>
<circle cx="7.21144" cy="4.00636" r="0.801282" fill="white"/>
<circle cx="13.6216" cy="4.00636" r="0.801282" fill="white"/>
<circle cx="13.6216" cy="10.4165" r="0.801282" fill="white"/>
<circle cx="7.21144" cy="10.4165" r="0.801282" fill="white"/>
<path fill-rule="evenodd" clip-rule="evenodd" d="M8.76323 9.95861C9.24584 10.2497 9.8114 10.4171 10.4161 10.4171C11.2191 10.4171 11.9532 10.1218 12.5156 9.63376L11.8059 8.92406C11.4266 9.23233 10.9429 9.41709 10.4161 9.41709C10.0901 9.41709 9.78074 9.34639 9.50236 9.21947L8.76323 9.95861ZM12.4236 6.29825C12.5505 6.57664 12.6212 6.88605 12.6212 7.21196C12.6212 7.53838 12.5503 7.84823 12.423 8.12695L13.162 8.86596C13.4535 8.38309 13.6212 7.81711 13.6212 7.21196C13.6212 6.6073 13.4538 6.04174 13.1627 5.55912L12.4236 6.29825ZM12.5166 4.79102L11.8069 5.5007C11.4275 5.19193 10.9434 5.00684 10.4161 5.00684C10.0897 5.00684 9.7798 5.07776 9.50108 5.20503L8.76207 4.46602C9.24494 4.17455 9.81092 4.00684 10.4161 4.00684C11.2196 4.00684 11.9541 4.30252 12.5166 4.79102ZM8.7048 8.60282L7.99513 9.31249C7.50662 8.74996 7.21094 8.01549 7.21094 7.21196C7.21094 6.40891 7.50628 5.67483 7.99427 5.11243L8.70397 5.82213C8.3957 6.20142 8.21094 6.68511 8.21094 7.21196C8.21094 7.73929 8.39603 8.22338 8.7048 8.60282Z" fill="white"/>
<rect x="4.00781" y="17.6279" width="12.8205" height="1.60256" rx="0.801282" fill="#0D6FF0"/>
<path d="M8.57817 15.9352C8.71972 15.5106 9.11714 15.2241 9.56478 15.2241H11.2708C11.7184 15.2241 12.1158 15.5106 12.2574 15.9352L12.3565 16.2326C12.3994 16.3614 12.4515 16.487 12.5122 16.6085L12.5682 16.7206C12.7361 17.0562 12.9569 17.3626 13.2223 17.628H7.61328C7.87864 17.3626 8.09948 17.0562 8.26731 16.7206L8.30357 16.648C8.37747 16.5002 8.44079 16.3474 8.49305 16.1906L8.57817 15.9352Z" fill="#0D6FF0"/>
</svg>
