<?xml version="1.0" standalone="no"?>
<!DOCTYPE svg PUBLIC "-//W3C//DTD SVG 20010904//EN"
 "http://www.w3.org/TR/2001/REC-SVG-20010904/DTD/svg10.dtd">
<svg version="1.0" xmlns="http://www.w3.org/2000/svg"
 width="400.000000pt" height="400.000000pt" viewBox="0 0 400.000000 400.000000"
 preserveAspectRatio="xMidYMid meet">
<metadata>
Created by potrace 1.14, written by Peter Selinger 2001-2017
</metadata>
<g transform="translate(0.000000,400.000000) scale(0.100000,-0.100000)"
fill="#000000" stroke="none">
<path d="M2954 3743 c5 -282 7 -313 18 -307 4 3 5 -2 2 -10 -3 -9 -10 -14 -14
-11 -4 2 -10 -18 -12 -46 -3 -28 -11 -55 -18 -59 -7 -4 -9 -13 -5 -20 6 -9 4
-11 -5 -5 -10 6 -12 4 -7 -9 5 -11 3 -15 -5 -10 -8 5 -9 2 -5 -9 3 -10 2 -17
-3 -17 -14 0 -12 13 10 66 11 26 19 49 16 51 -2 3 -10 -11 -17 -31 -7 -19 -16
-33 -21 -30 -4 3 -6 -15 -3 -40 3 -36 -2 -59 -29 -117 -21 -45 -36 -67 -40
-58 -3 8 -4 2 -1 -12 4 -24 2 -26 -43 -30 -26 -2 -393 -4 -817 -4 l-770 0 -15
30 c-8 17 -40 84 -70 150 -30 66 -71 152 -90 190 l-35 70 -170 -3 c-93 -2
-171 -4 -172 -6 -3 -3 87 -200 265 -581 l79 -170 804 -6 c1060 -8 1217 -11
1149 -19 l-55 -7 62 -1 c34 -1 65 3 68 8 7 12 25 4 25 -11 0 -5 -9 -9 -21 -9
-11 0 -17 -4 -14 -10 3 -5 -1 -10 -9 -10 -8 0 -18 5 -21 10 -3 6 -16 10 -28 9
-20 -1 -20 -2 3 -9 l25 -8 -25 -2 c-18 -2 -20 -4 -7 -7 18 -5 19 -8 21 -65 1
-37 1 -38 -49 -47 -27 -6 -63 -12 -80 -15 -16 -2 -9 -3 18 -3 26 1 47 -1 47
-5 0 -5 -407 -8 -905 -8 -498 0 -905 -1 -905 -3 0 -2 39 -86 86 -188 47 -101
122 -262 165 -357 44 -95 109 -234 144 -309 36 -75 65 -137 65 -139 0 -2 21
-47 46 -101 25 -54 101 -217 169 -363 68 -146 145 -312 172 -370 27 -58 53
-113 56 -122 10 -29 23 -21 45 30 20 46 58 128 176 376 31 65 56 120 56 122 0
1 36 78 80 170 44 91 80 168 80 169 0 2 27 61 61 132 61 127 98 208 146 313
42 93 46 100 56 93 6 -3 7 -1 3 5 -7 12 9 54 38 97 11 16 21 34 22 40 0 5 2
16 2 23 1 7 7 10 14 6 6 -4 8 -3 4 4 -7 11 66 176 83 186 6 4 7 14 4 23 -4 11
-3 14 5 9 8 -5 10 -2 6 8 -3 9 -2 16 4 16 5 0 13 15 16 33 6 28 9 30 19 16 11
-14 14 -14 26 -2 7 8 10 17 6 21 -3 3 -10 1 -14 -7 -7 -10 -10 -9 -14 3 -4 9
-2 16 4 16 6 0 8 7 5 16 -4 11 -2 15 8 11 10 -4 13 -1 9 9 -3 7 -9 14 -14 14
-20 0 -7 18 16 22 14 3 25 1 25 -3 0 -5 -6 -9 -12 -9 -10 0 -10 -2 -1 -8 12
-8 11 -55 -2 -86 -5 -11 -5 -17 1 -14 5 4 8 -467 6 -1198 l-2 -1204 525 0 525
0 0 2000 0 2000 -526 0 -525 0 5 -257z m29 -238 c-3 -9 -8 -14 -10 -11 -3 3
-2 9 2 15 9 16 15 13 8 -4z m62 -15 c3 -6 -1 -7 -9 -4 -18 7 -21 14 -7 14 6 0
13 -4 16 -10z m-35 -9 c0 -6 -4 -13 -10 -16 -5 -3 -10 1 -10 9 0 9 5 16 10 16
6 0 10 -4 10 -9z m81 -644 c-10 -9 -11 -8 -5 6 3 10 9 15 12 12 3 -3 0 -11 -7
-18z m-688 -663 c4 -4 -2 -23 -12 -43 -11 -20 -32 -63 -46 -96 -15 -33 -49
-105 -74 -160 -56 -118 -197 -423 -237 -512 -15 -35 -31 -63 -34 -63 -4 0 -37
66 -75 148 -38 81 -92 197 -120 257 -29 61 -65 137 -80 170 -16 33 -49 106
-75 161 -27 56 -51 111 -55 123 l-6 21 404 0 c222 0 407 -3 410 -6z"/>
<path d="M2883 2543 c9 -2 23 -2 30 0 6 3 -1 5 -18 5 -16 0 -22 -2 -12 -5z"/>
<path d="M2866 2265 c-9 -26 -7 -32 5 -12 6 10 9 21 6 23 -2 3 -7 -2 -11 -11z"/>
<path d="M2780 2111 c0 -6 4 -13 10 -16 6 -3 7 1 4 9 -7 18 -14 21 -14 7z"/>
</g>
</svg>
